G75*
%MOIN*%
%OFA0B0*%
%FSLAX25Y25*%
%IPPOS*%
%LPD*%
%AMOC8*
5,1,8,0,0,1.08239X$1,22.5*
%
%ADD10C,0.10000*%
%ADD11C,0.15000*%
%ADD12C,0.07000*%
%ADD13C,0.06600*%
%ADD14R,0.06500X0.11500*%
%ADD15R,0.06300X0.04600*%
%ADD16R,0.00800X0.02500*%
%ADD17C,0.01000*%
D10*
X0232095Y0046300D03*
X0232095Y0116300D03*
D11*
X0052095Y0046300D03*
X0052095Y0116300D03*
D12*
X0107095Y0121300D03*
X0117095Y0121300D03*
X0127095Y0121300D03*
X0137095Y0121300D03*
X0147095Y0121300D03*
X0157095Y0121300D03*
X0167095Y0121300D03*
X0177095Y0121300D03*
X0187095Y0121300D03*
X0197095Y0121300D03*
X0207095Y0121300D03*
X0217095Y0121300D03*
X0217095Y0041300D03*
X0207095Y0041300D03*
X0197095Y0041300D03*
X0187095Y0041300D03*
X0177095Y0041300D03*
X0167095Y0041300D03*
X0157095Y0041300D03*
X0147095Y0041300D03*
X0137095Y0041300D03*
X0127095Y0041300D03*
X0117095Y0041300D03*
X0107095Y0041300D03*
X0097095Y0041300D03*
X0087095Y0041300D03*
X0077095Y0041300D03*
X0067095Y0041300D03*
D13*
X0051095Y0061300D03*
X0232095Y0061550D03*
D14*
X0207095Y0051300D03*
X0197095Y0051300D03*
X0187095Y0051300D03*
X0177095Y0051300D03*
X0167095Y0051300D03*
X0157095Y0051300D03*
X0147095Y0051300D03*
X0137095Y0051300D03*
X0127095Y0051300D03*
X0117095Y0051300D03*
X0107095Y0051300D03*
X0137095Y0111300D03*
X0147095Y0111300D03*
X0157095Y0111300D03*
X0167095Y0111300D03*
X0177095Y0111300D03*
X0197095Y0111300D03*
X0207095Y0111300D03*
X0217095Y0111300D03*
D15*
X0187095Y0108300D03*
X0187095Y0114300D03*
D16*
X0187095Y0111300D03*
D17*
X0184095Y0111188D02*
X0190095Y0111188D01*
X0190095Y0110190D02*
X0184095Y0110190D01*
X0184095Y0109191D02*
X0190095Y0109191D01*
X0190095Y0108193D02*
X0184095Y0108193D01*
X0184095Y0107194D02*
X0190095Y0107194D01*
X0190095Y0106300D02*
X0190095Y0116300D01*
X0184095Y0116300D01*
X0184095Y0106300D01*
X0190095Y0106300D01*
X0190095Y0112187D02*
X0184095Y0112187D01*
X0184095Y0113185D02*
X0190095Y0113185D01*
X0190095Y0114184D02*
X0184095Y0114184D01*
X0184095Y0115182D02*
X0190095Y0115182D01*
X0190095Y0116181D02*
X0184095Y0116181D01*
M02*
