G75*
%MOIN*%
%OFA0B0*%
%FSLAX25Y25*%
%IPPOS*%
%LPD*%
%AMOC8*
5,1,8,0,0,1.08239X$1,22.5*
%
%ADD10C,0.00000*%
%ADD11C,0.15000*%
%ADD12C,0.07000*%
%ADD13C,0.06600*%
%ADD14C,0.01500*%
%ADD15C,0.00200*%
%ADD16R,0.06300X0.04600*%
%ADD17R,0.00800X0.02500*%
%ADD18C,0.01600*%
%ADD19C,0.00600*%
%ADD20C,0.02181*%
%ADD21C,0.02400*%
%ADD22C,0.01200*%
%ADD23C,0.03200*%
%ADD24C,0.01000*%
%ADD25OC8,0.02181*%
D10*
X0052095Y0036300D02*
X0232095Y0036300D01*
X0052095Y0036300D01*
X0051853Y0036303D01*
X0051612Y0036312D01*
X0051371Y0036326D01*
X0051130Y0036347D01*
X0050890Y0036373D01*
X0050650Y0036405D01*
X0050411Y0036443D01*
X0050174Y0036486D01*
X0049937Y0036536D01*
X0049702Y0036591D01*
X0049468Y0036651D01*
X0049236Y0036718D01*
X0049005Y0036789D01*
X0048776Y0036867D01*
X0048549Y0036950D01*
X0048324Y0037038D01*
X0048101Y0037132D01*
X0047881Y0037231D01*
X0047663Y0037336D01*
X0047448Y0037445D01*
X0047235Y0037560D01*
X0047025Y0037680D01*
X0046819Y0037805D01*
X0046615Y0037935D01*
X0046414Y0038070D01*
X0046217Y0038210D01*
X0046023Y0038354D01*
X0045833Y0038503D01*
X0045647Y0038657D01*
X0045464Y0038815D01*
X0045285Y0038977D01*
X0045110Y0039144D01*
X0044939Y0039315D01*
X0044772Y0039490D01*
X0044610Y0039669D01*
X0044452Y0039852D01*
X0044298Y0040038D01*
X0044149Y0040228D01*
X0044005Y0040422D01*
X0043865Y0040619D01*
X0043730Y0040820D01*
X0043600Y0041024D01*
X0043475Y0041230D01*
X0043355Y0041440D01*
X0043240Y0041653D01*
X0043131Y0041868D01*
X0043026Y0042086D01*
X0042927Y0042306D01*
X0042833Y0042529D01*
X0042745Y0042754D01*
X0042662Y0042981D01*
X0042584Y0043210D01*
X0042513Y0043441D01*
X0042446Y0043673D01*
X0042386Y0043907D01*
X0042331Y0044142D01*
X0042281Y0044379D01*
X0042238Y0044616D01*
X0042200Y0044855D01*
X0042168Y0045095D01*
X0042142Y0045335D01*
X0042121Y0045576D01*
X0042107Y0045817D01*
X0042098Y0046058D01*
X0042095Y0046300D01*
X0042095Y0116300D01*
X0042095Y0046300D01*
X0042098Y0046058D01*
X0042107Y0045817D01*
X0042121Y0045576D01*
X0042142Y0045335D01*
X0042168Y0045095D01*
X0042200Y0044855D01*
X0042238Y0044616D01*
X0042281Y0044379D01*
X0042331Y0044142D01*
X0042386Y0043907D01*
X0042446Y0043673D01*
X0042513Y0043441D01*
X0042584Y0043210D01*
X0042662Y0042981D01*
X0042745Y0042754D01*
X0042833Y0042529D01*
X0042927Y0042306D01*
X0043026Y0042086D01*
X0043131Y0041868D01*
X0043240Y0041653D01*
X0043355Y0041440D01*
X0043475Y0041230D01*
X0043600Y0041024D01*
X0043730Y0040820D01*
X0043865Y0040619D01*
X0044005Y0040422D01*
X0044149Y0040228D01*
X0044298Y0040038D01*
X0044452Y0039852D01*
X0044610Y0039669D01*
X0044772Y0039490D01*
X0044939Y0039315D01*
X0045110Y0039144D01*
X0045285Y0038977D01*
X0045464Y0038815D01*
X0045647Y0038657D01*
X0045833Y0038503D01*
X0046023Y0038354D01*
X0046217Y0038210D01*
X0046414Y0038070D01*
X0046615Y0037935D01*
X0046819Y0037805D01*
X0047025Y0037680D01*
X0047235Y0037560D01*
X0047448Y0037445D01*
X0047663Y0037336D01*
X0047881Y0037231D01*
X0048101Y0037132D01*
X0048324Y0037038D01*
X0048549Y0036950D01*
X0048776Y0036867D01*
X0049005Y0036789D01*
X0049236Y0036718D01*
X0049468Y0036651D01*
X0049702Y0036591D01*
X0049937Y0036536D01*
X0050174Y0036486D01*
X0050411Y0036443D01*
X0050650Y0036405D01*
X0050890Y0036373D01*
X0051130Y0036347D01*
X0051371Y0036326D01*
X0051612Y0036312D01*
X0051853Y0036303D01*
X0052095Y0036300D01*
X0042095Y0116300D02*
X0042098Y0116542D01*
X0042107Y0116783D01*
X0042121Y0117024D01*
X0042142Y0117265D01*
X0042168Y0117505D01*
X0042200Y0117745D01*
X0042238Y0117984D01*
X0042281Y0118221D01*
X0042331Y0118458D01*
X0042386Y0118693D01*
X0042446Y0118927D01*
X0042513Y0119159D01*
X0042584Y0119390D01*
X0042662Y0119619D01*
X0042745Y0119846D01*
X0042833Y0120071D01*
X0042927Y0120294D01*
X0043026Y0120514D01*
X0043131Y0120732D01*
X0043240Y0120947D01*
X0043355Y0121160D01*
X0043475Y0121370D01*
X0043600Y0121576D01*
X0043730Y0121780D01*
X0043865Y0121981D01*
X0044005Y0122178D01*
X0044149Y0122372D01*
X0044298Y0122562D01*
X0044452Y0122748D01*
X0044610Y0122931D01*
X0044772Y0123110D01*
X0044939Y0123285D01*
X0045110Y0123456D01*
X0045285Y0123623D01*
X0045464Y0123785D01*
X0045647Y0123943D01*
X0045833Y0124097D01*
X0046023Y0124246D01*
X0046217Y0124390D01*
X0046414Y0124530D01*
X0046615Y0124665D01*
X0046819Y0124795D01*
X0047025Y0124920D01*
X0047235Y0125040D01*
X0047448Y0125155D01*
X0047663Y0125264D01*
X0047881Y0125369D01*
X0048101Y0125468D01*
X0048324Y0125562D01*
X0048549Y0125650D01*
X0048776Y0125733D01*
X0049005Y0125811D01*
X0049236Y0125882D01*
X0049468Y0125949D01*
X0049702Y0126009D01*
X0049937Y0126064D01*
X0050174Y0126114D01*
X0050411Y0126157D01*
X0050650Y0126195D01*
X0050890Y0126227D01*
X0051130Y0126253D01*
X0051371Y0126274D01*
X0051612Y0126288D01*
X0051853Y0126297D01*
X0052095Y0126300D01*
X0232095Y0126300D01*
X0227095Y0116300D02*
X0227097Y0116441D01*
X0227103Y0116582D01*
X0227113Y0116722D01*
X0227127Y0116862D01*
X0227145Y0117002D01*
X0227166Y0117141D01*
X0227192Y0117280D01*
X0227221Y0117418D01*
X0227255Y0117554D01*
X0227292Y0117690D01*
X0227333Y0117825D01*
X0227378Y0117959D01*
X0227427Y0118091D01*
X0227479Y0118222D01*
X0227535Y0118351D01*
X0227595Y0118478D01*
X0227658Y0118604D01*
X0227724Y0118728D01*
X0227795Y0118851D01*
X0227868Y0118971D01*
X0227945Y0119089D01*
X0228025Y0119205D01*
X0228109Y0119318D01*
X0228195Y0119429D01*
X0228285Y0119538D01*
X0228378Y0119644D01*
X0228473Y0119747D01*
X0228572Y0119848D01*
X0228673Y0119946D01*
X0228777Y0120041D01*
X0228884Y0120133D01*
X0228993Y0120222D01*
X0229105Y0120307D01*
X0229219Y0120390D01*
X0229335Y0120470D01*
X0229454Y0120546D01*
X0229575Y0120618D01*
X0229697Y0120688D01*
X0229822Y0120753D01*
X0229948Y0120816D01*
X0230076Y0120874D01*
X0230206Y0120929D01*
X0230337Y0120981D01*
X0230470Y0121028D01*
X0230604Y0121072D01*
X0230739Y0121113D01*
X0230875Y0121149D01*
X0231012Y0121181D01*
X0231150Y0121210D01*
X0231288Y0121235D01*
X0231428Y0121255D01*
X0231568Y0121272D01*
X0231708Y0121285D01*
X0231849Y0121294D01*
X0231989Y0121299D01*
X0232130Y0121300D01*
X0232271Y0121297D01*
X0232412Y0121290D01*
X0232552Y0121279D01*
X0232692Y0121264D01*
X0232832Y0121245D01*
X0232971Y0121223D01*
X0233109Y0121196D01*
X0233247Y0121166D01*
X0233383Y0121131D01*
X0233519Y0121093D01*
X0233653Y0121051D01*
X0233787Y0121005D01*
X0233919Y0120956D01*
X0234049Y0120902D01*
X0234178Y0120845D01*
X0234305Y0120785D01*
X0234431Y0120721D01*
X0234554Y0120653D01*
X0234676Y0120582D01*
X0234796Y0120508D01*
X0234913Y0120430D01*
X0235028Y0120349D01*
X0235141Y0120265D01*
X0235252Y0120178D01*
X0235360Y0120087D01*
X0235465Y0119994D01*
X0235568Y0119897D01*
X0235668Y0119798D01*
X0235765Y0119696D01*
X0235859Y0119591D01*
X0235950Y0119484D01*
X0236038Y0119374D01*
X0236123Y0119262D01*
X0236205Y0119147D01*
X0236284Y0119030D01*
X0236359Y0118911D01*
X0236431Y0118790D01*
X0236499Y0118667D01*
X0236564Y0118542D01*
X0236626Y0118415D01*
X0236683Y0118286D01*
X0236738Y0118156D01*
X0236788Y0118025D01*
X0236835Y0117892D01*
X0236878Y0117758D01*
X0236917Y0117622D01*
X0236952Y0117486D01*
X0236984Y0117349D01*
X0237011Y0117211D01*
X0237035Y0117072D01*
X0237055Y0116932D01*
X0237071Y0116792D01*
X0237083Y0116652D01*
X0237091Y0116511D01*
X0237095Y0116370D01*
X0237095Y0116230D01*
X0237091Y0116089D01*
X0237083Y0115948D01*
X0237071Y0115808D01*
X0237055Y0115668D01*
X0237035Y0115528D01*
X0237011Y0115389D01*
X0236984Y0115251D01*
X0236952Y0115114D01*
X0236917Y0114978D01*
X0236878Y0114842D01*
X0236835Y0114708D01*
X0236788Y0114575D01*
X0236738Y0114444D01*
X0236683Y0114314D01*
X0236626Y0114185D01*
X0236564Y0114058D01*
X0236499Y0113933D01*
X0236431Y0113810D01*
X0236359Y0113689D01*
X0236284Y0113570D01*
X0236205Y0113453D01*
X0236123Y0113338D01*
X0236038Y0113226D01*
X0235950Y0113116D01*
X0235859Y0113009D01*
X0235765Y0112904D01*
X0235668Y0112802D01*
X0235568Y0112703D01*
X0235465Y0112606D01*
X0235360Y0112513D01*
X0235252Y0112422D01*
X0235141Y0112335D01*
X0235028Y0112251D01*
X0234913Y0112170D01*
X0234796Y0112092D01*
X0234676Y0112018D01*
X0234554Y0111947D01*
X0234431Y0111879D01*
X0234305Y0111815D01*
X0234178Y0111755D01*
X0234049Y0111698D01*
X0233919Y0111644D01*
X0233787Y0111595D01*
X0233653Y0111549D01*
X0233519Y0111507D01*
X0233383Y0111469D01*
X0233247Y0111434D01*
X0233109Y0111404D01*
X0232971Y0111377D01*
X0232832Y0111355D01*
X0232692Y0111336D01*
X0232552Y0111321D01*
X0232412Y0111310D01*
X0232271Y0111303D01*
X0232130Y0111300D01*
X0231989Y0111301D01*
X0231849Y0111306D01*
X0231708Y0111315D01*
X0231568Y0111328D01*
X0231428Y0111345D01*
X0231288Y0111365D01*
X0231150Y0111390D01*
X0231012Y0111419D01*
X0230875Y0111451D01*
X0230739Y0111487D01*
X0230604Y0111528D01*
X0230470Y0111572D01*
X0230337Y0111619D01*
X0230206Y0111671D01*
X0230076Y0111726D01*
X0229948Y0111784D01*
X0229822Y0111847D01*
X0229697Y0111912D01*
X0229575Y0111982D01*
X0229454Y0112054D01*
X0229335Y0112130D01*
X0229219Y0112210D01*
X0229105Y0112293D01*
X0228993Y0112378D01*
X0228884Y0112467D01*
X0228777Y0112559D01*
X0228673Y0112654D01*
X0228572Y0112752D01*
X0228473Y0112853D01*
X0228378Y0112956D01*
X0228285Y0113062D01*
X0228195Y0113171D01*
X0228109Y0113282D01*
X0228025Y0113395D01*
X0227945Y0113511D01*
X0227868Y0113629D01*
X0227795Y0113749D01*
X0227724Y0113872D01*
X0227658Y0113996D01*
X0227595Y0114122D01*
X0227535Y0114249D01*
X0227479Y0114378D01*
X0227427Y0114509D01*
X0227378Y0114641D01*
X0227333Y0114775D01*
X0227292Y0114910D01*
X0227255Y0115046D01*
X0227221Y0115182D01*
X0227192Y0115320D01*
X0227166Y0115459D01*
X0227145Y0115598D01*
X0227127Y0115738D01*
X0227113Y0115878D01*
X0227103Y0116018D01*
X0227097Y0116159D01*
X0227095Y0116300D01*
X0232095Y0126300D02*
X0232337Y0126297D01*
X0232578Y0126288D01*
X0232819Y0126274D01*
X0233060Y0126253D01*
X0233300Y0126227D01*
X0233540Y0126195D01*
X0233779Y0126157D01*
X0234016Y0126114D01*
X0234253Y0126064D01*
X0234488Y0126009D01*
X0234722Y0125949D01*
X0234954Y0125882D01*
X0235185Y0125811D01*
X0235414Y0125733D01*
X0235641Y0125650D01*
X0235866Y0125562D01*
X0236089Y0125468D01*
X0236309Y0125369D01*
X0236527Y0125264D01*
X0236742Y0125155D01*
X0236955Y0125040D01*
X0237165Y0124920D01*
X0237371Y0124795D01*
X0237575Y0124665D01*
X0237776Y0124530D01*
X0237973Y0124390D01*
X0238167Y0124246D01*
X0238357Y0124097D01*
X0238543Y0123943D01*
X0238726Y0123785D01*
X0238905Y0123623D01*
X0239080Y0123456D01*
X0239251Y0123285D01*
X0239418Y0123110D01*
X0239580Y0122931D01*
X0239738Y0122748D01*
X0239892Y0122562D01*
X0240041Y0122372D01*
X0240185Y0122178D01*
X0240325Y0121981D01*
X0240460Y0121780D01*
X0240590Y0121576D01*
X0240715Y0121370D01*
X0240835Y0121160D01*
X0240950Y0120947D01*
X0241059Y0120732D01*
X0241164Y0120514D01*
X0241263Y0120294D01*
X0241357Y0120071D01*
X0241445Y0119846D01*
X0241528Y0119619D01*
X0241606Y0119390D01*
X0241677Y0119159D01*
X0241744Y0118927D01*
X0241804Y0118693D01*
X0241859Y0118458D01*
X0241909Y0118221D01*
X0241952Y0117984D01*
X0241990Y0117745D01*
X0242022Y0117505D01*
X0242048Y0117265D01*
X0242069Y0117024D01*
X0242083Y0116783D01*
X0242092Y0116542D01*
X0242095Y0116300D01*
X0242095Y0046300D01*
X0242095Y0116300D01*
X0242092Y0116542D01*
X0242083Y0116783D01*
X0242069Y0117024D01*
X0242048Y0117265D01*
X0242022Y0117505D01*
X0241990Y0117745D01*
X0241952Y0117984D01*
X0241909Y0118221D01*
X0241859Y0118458D01*
X0241804Y0118693D01*
X0241744Y0118927D01*
X0241677Y0119159D01*
X0241606Y0119390D01*
X0241528Y0119619D01*
X0241445Y0119846D01*
X0241357Y0120071D01*
X0241263Y0120294D01*
X0241164Y0120514D01*
X0241059Y0120732D01*
X0240950Y0120947D01*
X0240835Y0121160D01*
X0240715Y0121370D01*
X0240590Y0121576D01*
X0240460Y0121780D01*
X0240325Y0121981D01*
X0240185Y0122178D01*
X0240041Y0122372D01*
X0239892Y0122562D01*
X0239738Y0122748D01*
X0239580Y0122931D01*
X0239418Y0123110D01*
X0239251Y0123285D01*
X0239080Y0123456D01*
X0238905Y0123623D01*
X0238726Y0123785D01*
X0238543Y0123943D01*
X0238357Y0124097D01*
X0238167Y0124246D01*
X0237973Y0124390D01*
X0237776Y0124530D01*
X0237575Y0124665D01*
X0237371Y0124795D01*
X0237165Y0124920D01*
X0236955Y0125040D01*
X0236742Y0125155D01*
X0236527Y0125264D01*
X0236309Y0125369D01*
X0236089Y0125468D01*
X0235866Y0125562D01*
X0235641Y0125650D01*
X0235414Y0125733D01*
X0235185Y0125811D01*
X0234954Y0125882D01*
X0234722Y0125949D01*
X0234488Y0126009D01*
X0234253Y0126064D01*
X0234016Y0126114D01*
X0233779Y0126157D01*
X0233540Y0126195D01*
X0233300Y0126227D01*
X0233060Y0126253D01*
X0232819Y0126274D01*
X0232578Y0126288D01*
X0232337Y0126297D01*
X0232095Y0126300D01*
X0227095Y0046300D02*
X0227097Y0046441D01*
X0227103Y0046582D01*
X0227113Y0046722D01*
X0227127Y0046862D01*
X0227145Y0047002D01*
X0227166Y0047141D01*
X0227192Y0047280D01*
X0227221Y0047418D01*
X0227255Y0047554D01*
X0227292Y0047690D01*
X0227333Y0047825D01*
X0227378Y0047959D01*
X0227427Y0048091D01*
X0227479Y0048222D01*
X0227535Y0048351D01*
X0227595Y0048478D01*
X0227658Y0048604D01*
X0227724Y0048728D01*
X0227795Y0048851D01*
X0227868Y0048971D01*
X0227945Y0049089D01*
X0228025Y0049205D01*
X0228109Y0049318D01*
X0228195Y0049429D01*
X0228285Y0049538D01*
X0228378Y0049644D01*
X0228473Y0049747D01*
X0228572Y0049848D01*
X0228673Y0049946D01*
X0228777Y0050041D01*
X0228884Y0050133D01*
X0228993Y0050222D01*
X0229105Y0050307D01*
X0229219Y0050390D01*
X0229335Y0050470D01*
X0229454Y0050546D01*
X0229575Y0050618D01*
X0229697Y0050688D01*
X0229822Y0050753D01*
X0229948Y0050816D01*
X0230076Y0050874D01*
X0230206Y0050929D01*
X0230337Y0050981D01*
X0230470Y0051028D01*
X0230604Y0051072D01*
X0230739Y0051113D01*
X0230875Y0051149D01*
X0231012Y0051181D01*
X0231150Y0051210D01*
X0231288Y0051235D01*
X0231428Y0051255D01*
X0231568Y0051272D01*
X0231708Y0051285D01*
X0231849Y0051294D01*
X0231989Y0051299D01*
X0232130Y0051300D01*
X0232271Y0051297D01*
X0232412Y0051290D01*
X0232552Y0051279D01*
X0232692Y0051264D01*
X0232832Y0051245D01*
X0232971Y0051223D01*
X0233109Y0051196D01*
X0233247Y0051166D01*
X0233383Y0051131D01*
X0233519Y0051093D01*
X0233653Y0051051D01*
X0233787Y0051005D01*
X0233919Y0050956D01*
X0234049Y0050902D01*
X0234178Y0050845D01*
X0234305Y0050785D01*
X0234431Y0050721D01*
X0234554Y0050653D01*
X0234676Y0050582D01*
X0234796Y0050508D01*
X0234913Y0050430D01*
X0235028Y0050349D01*
X0235141Y0050265D01*
X0235252Y0050178D01*
X0235360Y0050087D01*
X0235465Y0049994D01*
X0235568Y0049897D01*
X0235668Y0049798D01*
X0235765Y0049696D01*
X0235859Y0049591D01*
X0235950Y0049484D01*
X0236038Y0049374D01*
X0236123Y0049262D01*
X0236205Y0049147D01*
X0236284Y0049030D01*
X0236359Y0048911D01*
X0236431Y0048790D01*
X0236499Y0048667D01*
X0236564Y0048542D01*
X0236626Y0048415D01*
X0236683Y0048286D01*
X0236738Y0048156D01*
X0236788Y0048025D01*
X0236835Y0047892D01*
X0236878Y0047758D01*
X0236917Y0047622D01*
X0236952Y0047486D01*
X0236984Y0047349D01*
X0237011Y0047211D01*
X0237035Y0047072D01*
X0237055Y0046932D01*
X0237071Y0046792D01*
X0237083Y0046652D01*
X0237091Y0046511D01*
X0237095Y0046370D01*
X0237095Y0046230D01*
X0237091Y0046089D01*
X0237083Y0045948D01*
X0237071Y0045808D01*
X0237055Y0045668D01*
X0237035Y0045528D01*
X0237011Y0045389D01*
X0236984Y0045251D01*
X0236952Y0045114D01*
X0236917Y0044978D01*
X0236878Y0044842D01*
X0236835Y0044708D01*
X0236788Y0044575D01*
X0236738Y0044444D01*
X0236683Y0044314D01*
X0236626Y0044185D01*
X0236564Y0044058D01*
X0236499Y0043933D01*
X0236431Y0043810D01*
X0236359Y0043689D01*
X0236284Y0043570D01*
X0236205Y0043453D01*
X0236123Y0043338D01*
X0236038Y0043226D01*
X0235950Y0043116D01*
X0235859Y0043009D01*
X0235765Y0042904D01*
X0235668Y0042802D01*
X0235568Y0042703D01*
X0235465Y0042606D01*
X0235360Y0042513D01*
X0235252Y0042422D01*
X0235141Y0042335D01*
X0235028Y0042251D01*
X0234913Y0042170D01*
X0234796Y0042092D01*
X0234676Y0042018D01*
X0234554Y0041947D01*
X0234431Y0041879D01*
X0234305Y0041815D01*
X0234178Y0041755D01*
X0234049Y0041698D01*
X0233919Y0041644D01*
X0233787Y0041595D01*
X0233653Y0041549D01*
X0233519Y0041507D01*
X0233383Y0041469D01*
X0233247Y0041434D01*
X0233109Y0041404D01*
X0232971Y0041377D01*
X0232832Y0041355D01*
X0232692Y0041336D01*
X0232552Y0041321D01*
X0232412Y0041310D01*
X0232271Y0041303D01*
X0232130Y0041300D01*
X0231989Y0041301D01*
X0231849Y0041306D01*
X0231708Y0041315D01*
X0231568Y0041328D01*
X0231428Y0041345D01*
X0231288Y0041365D01*
X0231150Y0041390D01*
X0231012Y0041419D01*
X0230875Y0041451D01*
X0230739Y0041487D01*
X0230604Y0041528D01*
X0230470Y0041572D01*
X0230337Y0041619D01*
X0230206Y0041671D01*
X0230076Y0041726D01*
X0229948Y0041784D01*
X0229822Y0041847D01*
X0229697Y0041912D01*
X0229575Y0041982D01*
X0229454Y0042054D01*
X0229335Y0042130D01*
X0229219Y0042210D01*
X0229105Y0042293D01*
X0228993Y0042378D01*
X0228884Y0042467D01*
X0228777Y0042559D01*
X0228673Y0042654D01*
X0228572Y0042752D01*
X0228473Y0042853D01*
X0228378Y0042956D01*
X0228285Y0043062D01*
X0228195Y0043171D01*
X0228109Y0043282D01*
X0228025Y0043395D01*
X0227945Y0043511D01*
X0227868Y0043629D01*
X0227795Y0043749D01*
X0227724Y0043872D01*
X0227658Y0043996D01*
X0227595Y0044122D01*
X0227535Y0044249D01*
X0227479Y0044378D01*
X0227427Y0044509D01*
X0227378Y0044641D01*
X0227333Y0044775D01*
X0227292Y0044910D01*
X0227255Y0045046D01*
X0227221Y0045182D01*
X0227192Y0045320D01*
X0227166Y0045459D01*
X0227145Y0045598D01*
X0227127Y0045738D01*
X0227113Y0045878D01*
X0227103Y0046018D01*
X0227097Y0046159D01*
X0227095Y0046300D01*
X0232095Y0036300D02*
X0232337Y0036303D01*
X0232578Y0036312D01*
X0232819Y0036326D01*
X0233060Y0036347D01*
X0233300Y0036373D01*
X0233540Y0036405D01*
X0233779Y0036443D01*
X0234016Y0036486D01*
X0234253Y0036536D01*
X0234488Y0036591D01*
X0234722Y0036651D01*
X0234954Y0036718D01*
X0235185Y0036789D01*
X0235414Y0036867D01*
X0235641Y0036950D01*
X0235866Y0037038D01*
X0236089Y0037132D01*
X0236309Y0037231D01*
X0236527Y0037336D01*
X0236742Y0037445D01*
X0236955Y0037560D01*
X0237165Y0037680D01*
X0237371Y0037805D01*
X0237575Y0037935D01*
X0237776Y0038070D01*
X0237973Y0038210D01*
X0238167Y0038354D01*
X0238357Y0038503D01*
X0238543Y0038657D01*
X0238726Y0038815D01*
X0238905Y0038977D01*
X0239080Y0039144D01*
X0239251Y0039315D01*
X0239418Y0039490D01*
X0239580Y0039669D01*
X0239738Y0039852D01*
X0239892Y0040038D01*
X0240041Y0040228D01*
X0240185Y0040422D01*
X0240325Y0040619D01*
X0240460Y0040820D01*
X0240590Y0041024D01*
X0240715Y0041230D01*
X0240835Y0041440D01*
X0240950Y0041653D01*
X0241059Y0041868D01*
X0241164Y0042086D01*
X0241263Y0042306D01*
X0241357Y0042529D01*
X0241445Y0042754D01*
X0241528Y0042981D01*
X0241606Y0043210D01*
X0241677Y0043441D01*
X0241744Y0043673D01*
X0241804Y0043907D01*
X0241859Y0044142D01*
X0241909Y0044379D01*
X0241952Y0044616D01*
X0241990Y0044855D01*
X0242022Y0045095D01*
X0242048Y0045335D01*
X0242069Y0045576D01*
X0242083Y0045817D01*
X0242092Y0046058D01*
X0242095Y0046300D01*
X0242092Y0046058D01*
X0242083Y0045817D01*
X0242069Y0045576D01*
X0242048Y0045335D01*
X0242022Y0045095D01*
X0241990Y0044855D01*
X0241952Y0044616D01*
X0241909Y0044379D01*
X0241859Y0044142D01*
X0241804Y0043907D01*
X0241744Y0043673D01*
X0241677Y0043441D01*
X0241606Y0043210D01*
X0241528Y0042981D01*
X0241445Y0042754D01*
X0241357Y0042529D01*
X0241263Y0042306D01*
X0241164Y0042086D01*
X0241059Y0041868D01*
X0240950Y0041653D01*
X0240835Y0041440D01*
X0240715Y0041230D01*
X0240590Y0041024D01*
X0240460Y0040820D01*
X0240325Y0040619D01*
X0240185Y0040422D01*
X0240041Y0040228D01*
X0239892Y0040038D01*
X0239738Y0039852D01*
X0239580Y0039669D01*
X0239418Y0039490D01*
X0239251Y0039315D01*
X0239080Y0039144D01*
X0238905Y0038977D01*
X0238726Y0038815D01*
X0238543Y0038657D01*
X0238357Y0038503D01*
X0238167Y0038354D01*
X0237973Y0038210D01*
X0237776Y0038070D01*
X0237575Y0037935D01*
X0237371Y0037805D01*
X0237165Y0037680D01*
X0236955Y0037560D01*
X0236742Y0037445D01*
X0236527Y0037336D01*
X0236309Y0037231D01*
X0236089Y0037132D01*
X0235866Y0037038D01*
X0235641Y0036950D01*
X0235414Y0036867D01*
X0235185Y0036789D01*
X0234954Y0036718D01*
X0234722Y0036651D01*
X0234488Y0036591D01*
X0234253Y0036536D01*
X0234016Y0036486D01*
X0233779Y0036443D01*
X0233540Y0036405D01*
X0233300Y0036373D01*
X0233060Y0036347D01*
X0232819Y0036326D01*
X0232578Y0036312D01*
X0232337Y0036303D01*
X0232095Y0036300D01*
D11*
X0052095Y0046300D03*
X0052095Y0116300D03*
D12*
X0107095Y0121300D03*
X0117095Y0121300D03*
X0127095Y0121300D03*
X0137095Y0121300D03*
X0147095Y0121300D03*
X0157095Y0121300D03*
X0167095Y0121300D03*
X0177095Y0121300D03*
X0187095Y0121300D03*
X0197095Y0121300D03*
X0207095Y0121300D03*
X0217095Y0121300D03*
X0217095Y0041300D03*
X0207095Y0041300D03*
X0197095Y0041300D03*
X0187095Y0041300D03*
X0177095Y0041300D03*
X0167095Y0041300D03*
X0157095Y0041300D03*
X0147095Y0041300D03*
X0137095Y0041300D03*
X0127095Y0041300D03*
X0117095Y0041300D03*
X0107095Y0041300D03*
X0097095Y0041300D03*
X0087095Y0041300D03*
X0077095Y0041300D03*
X0067095Y0041300D03*
D13*
X0051095Y0061300D03*
X0232095Y0061550D03*
D14*
X0204845Y0056050D02*
X0204845Y0054550D01*
X0204845Y0056050D02*
X0209345Y0056050D01*
X0209345Y0054550D01*
X0204845Y0054550D01*
X0204845Y0056049D02*
X0209345Y0056049D01*
X0204845Y0048050D02*
X0204845Y0046550D01*
X0204845Y0048050D02*
X0209345Y0048050D01*
X0209345Y0046550D01*
X0204845Y0046550D01*
X0204845Y0048049D02*
X0209345Y0048049D01*
X0194845Y0048050D02*
X0194845Y0046550D01*
X0194845Y0048050D02*
X0199345Y0048050D01*
X0199345Y0046550D01*
X0194845Y0046550D01*
X0194845Y0048049D02*
X0199345Y0048049D01*
X0194845Y0054550D02*
X0194845Y0056050D01*
X0199345Y0056050D01*
X0199345Y0054550D01*
X0194845Y0054550D01*
X0194845Y0056049D02*
X0199345Y0056049D01*
X0184845Y0056050D02*
X0184845Y0054550D01*
X0184845Y0056050D02*
X0189345Y0056050D01*
X0189345Y0054550D01*
X0184845Y0054550D01*
X0184845Y0056049D02*
X0189345Y0056049D01*
X0184845Y0048050D02*
X0184845Y0046550D01*
X0184845Y0048050D02*
X0189345Y0048050D01*
X0189345Y0046550D01*
X0184845Y0046550D01*
X0184845Y0048049D02*
X0189345Y0048049D01*
X0174845Y0048050D02*
X0174845Y0046550D01*
X0174845Y0048050D02*
X0179345Y0048050D01*
X0179345Y0046550D01*
X0174845Y0046550D01*
X0174845Y0048049D02*
X0179345Y0048049D01*
X0174845Y0054550D02*
X0174845Y0056050D01*
X0179345Y0056050D01*
X0179345Y0054550D01*
X0174845Y0054550D01*
X0174845Y0056049D02*
X0179345Y0056049D01*
X0164845Y0056050D02*
X0164845Y0054550D01*
X0164845Y0056050D02*
X0169345Y0056050D01*
X0169345Y0054550D01*
X0164845Y0054550D01*
X0164845Y0056049D02*
X0169345Y0056049D01*
X0164845Y0048050D02*
X0164845Y0046550D01*
X0164845Y0048050D02*
X0169345Y0048050D01*
X0169345Y0046550D01*
X0164845Y0046550D01*
X0164845Y0048049D02*
X0169345Y0048049D01*
X0154845Y0048050D02*
X0154845Y0046550D01*
X0154845Y0048050D02*
X0159345Y0048050D01*
X0159345Y0046550D01*
X0154845Y0046550D01*
X0154845Y0048049D02*
X0159345Y0048049D01*
X0154845Y0054550D02*
X0154845Y0056050D01*
X0159345Y0056050D01*
X0159345Y0054550D01*
X0154845Y0054550D01*
X0154845Y0056049D02*
X0159345Y0056049D01*
X0144845Y0056050D02*
X0144845Y0054550D01*
X0144845Y0056050D02*
X0149345Y0056050D01*
X0149345Y0054550D01*
X0144845Y0054550D01*
X0144845Y0056049D02*
X0149345Y0056049D01*
X0144845Y0048050D02*
X0144845Y0046550D01*
X0144845Y0048050D02*
X0149345Y0048050D01*
X0149345Y0046550D01*
X0144845Y0046550D01*
X0144845Y0048049D02*
X0149345Y0048049D01*
X0134845Y0048050D02*
X0134845Y0046550D01*
X0134845Y0048050D02*
X0139345Y0048050D01*
X0139345Y0046550D01*
X0134845Y0046550D01*
X0134845Y0048049D02*
X0139345Y0048049D01*
X0134845Y0054550D02*
X0134845Y0056050D01*
X0139345Y0056050D01*
X0139345Y0054550D01*
X0134845Y0054550D01*
X0134845Y0056049D02*
X0139345Y0056049D01*
X0124845Y0056050D02*
X0124845Y0054550D01*
X0124845Y0056050D02*
X0129345Y0056050D01*
X0129345Y0054550D01*
X0124845Y0054550D01*
X0124845Y0056049D02*
X0129345Y0056049D01*
X0124845Y0048050D02*
X0124845Y0046550D01*
X0124845Y0048050D02*
X0129345Y0048050D01*
X0129345Y0046550D01*
X0124845Y0046550D01*
X0124845Y0048049D02*
X0129345Y0048049D01*
X0114845Y0048050D02*
X0114845Y0046550D01*
X0114845Y0048050D02*
X0119345Y0048050D01*
X0119345Y0046550D01*
X0114845Y0046550D01*
X0114845Y0048049D02*
X0119345Y0048049D01*
X0114845Y0054550D02*
X0114845Y0056050D01*
X0119345Y0056050D01*
X0119345Y0054550D01*
X0114845Y0054550D01*
X0114845Y0056049D02*
X0119345Y0056049D01*
X0104845Y0056050D02*
X0104845Y0054550D01*
X0104845Y0056050D02*
X0109345Y0056050D01*
X0109345Y0054550D01*
X0104845Y0054550D01*
X0104845Y0056049D02*
X0109345Y0056049D01*
X0104845Y0048050D02*
X0104845Y0046550D01*
X0104845Y0048050D02*
X0109345Y0048050D01*
X0109345Y0046550D01*
X0104845Y0046550D01*
X0104845Y0048049D02*
X0109345Y0048049D01*
X0134845Y0106550D02*
X0134845Y0108050D01*
X0139345Y0108050D01*
X0139345Y0106550D01*
X0134845Y0106550D01*
X0134845Y0108049D02*
X0139345Y0108049D01*
X0144845Y0108050D02*
X0144845Y0106550D01*
X0144845Y0108050D02*
X0149345Y0108050D01*
X0149345Y0106550D01*
X0144845Y0106550D01*
X0144845Y0108049D02*
X0149345Y0108049D01*
X0154845Y0108050D02*
X0154845Y0106550D01*
X0154845Y0108050D02*
X0159345Y0108050D01*
X0159345Y0106550D01*
X0154845Y0106550D01*
X0154845Y0108049D02*
X0159345Y0108049D01*
X0164845Y0108050D02*
X0164845Y0106550D01*
X0164845Y0108050D02*
X0169345Y0108050D01*
X0169345Y0106550D01*
X0164845Y0106550D01*
X0164845Y0108049D02*
X0169345Y0108049D01*
X0174845Y0108050D02*
X0174845Y0106550D01*
X0174845Y0108050D02*
X0179345Y0108050D01*
X0179345Y0106550D01*
X0174845Y0106550D01*
X0174845Y0108049D02*
X0179345Y0108049D01*
X0174845Y0114550D02*
X0174845Y0116050D01*
X0179345Y0116050D01*
X0179345Y0114550D01*
X0174845Y0114550D01*
X0174845Y0116049D02*
X0179345Y0116049D01*
X0164845Y0116050D02*
X0164845Y0114550D01*
X0164845Y0116050D02*
X0169345Y0116050D01*
X0169345Y0114550D01*
X0164845Y0114550D01*
X0164845Y0116049D02*
X0169345Y0116049D01*
X0154845Y0116050D02*
X0154845Y0114550D01*
X0154845Y0116050D02*
X0159345Y0116050D01*
X0159345Y0114550D01*
X0154845Y0114550D01*
X0154845Y0116049D02*
X0159345Y0116049D01*
X0144845Y0116050D02*
X0144845Y0114550D01*
X0144845Y0116050D02*
X0149345Y0116050D01*
X0149345Y0114550D01*
X0144845Y0114550D01*
X0144845Y0116049D02*
X0149345Y0116049D01*
X0134845Y0116050D02*
X0134845Y0114550D01*
X0134845Y0116050D02*
X0139345Y0116050D01*
X0139345Y0114550D01*
X0134845Y0114550D01*
X0134845Y0116049D02*
X0139345Y0116049D01*
X0194845Y0116050D02*
X0194845Y0114550D01*
X0194845Y0116050D02*
X0199345Y0116050D01*
X0199345Y0114550D01*
X0194845Y0114550D01*
X0194845Y0116049D02*
X0199345Y0116049D01*
X0204845Y0116050D02*
X0204845Y0114550D01*
X0204845Y0116050D02*
X0209345Y0116050D01*
X0209345Y0114550D01*
X0204845Y0114550D01*
X0204845Y0116049D02*
X0209345Y0116049D01*
X0214845Y0116050D02*
X0214845Y0114550D01*
X0214845Y0116050D02*
X0219345Y0116050D01*
X0219345Y0114550D01*
X0214845Y0114550D01*
X0214845Y0116049D02*
X0219345Y0116049D01*
X0214845Y0108050D02*
X0214845Y0106550D01*
X0214845Y0108050D02*
X0219345Y0108050D01*
X0219345Y0106550D01*
X0214845Y0106550D01*
X0214845Y0108049D02*
X0219345Y0108049D01*
X0204845Y0108050D02*
X0204845Y0106550D01*
X0204845Y0108050D02*
X0209345Y0108050D01*
X0209345Y0106550D01*
X0204845Y0106550D01*
X0204845Y0108049D02*
X0209345Y0108049D01*
X0194845Y0108050D02*
X0194845Y0106550D01*
X0194845Y0108050D02*
X0199345Y0108050D01*
X0199345Y0106550D01*
X0194845Y0106550D01*
X0194845Y0108049D02*
X0199345Y0108049D01*
D15*
X0199995Y0107963D02*
X0194195Y0107963D01*
X0194195Y0108161D02*
X0199995Y0108161D01*
X0199995Y0108360D02*
X0194195Y0108360D01*
X0194195Y0108558D02*
X0199995Y0108558D01*
X0199995Y0108757D02*
X0194195Y0108757D01*
X0194195Y0108955D02*
X0199995Y0108955D01*
X0199995Y0109154D02*
X0197254Y0109154D01*
X0197095Y0109000D02*
X0199995Y0111800D01*
X0199995Y0106800D01*
X0194195Y0106800D01*
X0194195Y0111800D01*
X0197095Y0109000D01*
X0196936Y0109154D02*
X0194195Y0109154D01*
X0194195Y0109352D02*
X0196730Y0109352D01*
X0196525Y0109551D02*
X0194195Y0109551D01*
X0194195Y0109749D02*
X0196319Y0109749D01*
X0196114Y0109948D02*
X0194195Y0109948D01*
X0194195Y0110146D02*
X0195908Y0110146D01*
X0195702Y0110345D02*
X0194195Y0110345D01*
X0194195Y0110543D02*
X0195497Y0110543D01*
X0195291Y0110742D02*
X0194195Y0110742D01*
X0194195Y0110940D02*
X0195086Y0110940D01*
X0194880Y0111139D02*
X0194195Y0111139D01*
X0194195Y0111337D02*
X0194674Y0111337D01*
X0194469Y0111536D02*
X0194195Y0111536D01*
X0194195Y0111734D02*
X0194263Y0111734D01*
X0195217Y0112528D02*
X0198973Y0112528D01*
X0198775Y0112330D02*
X0195415Y0112330D01*
X0195614Y0112131D02*
X0198576Y0112131D01*
X0198378Y0111933D02*
X0195812Y0111933D01*
X0196011Y0111734D02*
X0198179Y0111734D01*
X0197981Y0111536D02*
X0196209Y0111536D01*
X0196408Y0111337D02*
X0197782Y0111337D01*
X0197584Y0111139D02*
X0196606Y0111139D01*
X0196805Y0110940D02*
X0197385Y0110940D01*
X0197187Y0110742D02*
X0197003Y0110742D01*
X0197095Y0110650D02*
X0199995Y0113550D01*
X0199995Y0115800D01*
X0194195Y0115800D01*
X0194195Y0113550D01*
X0197095Y0110650D01*
X0197871Y0109749D02*
X0199995Y0109749D01*
X0199995Y0109551D02*
X0197665Y0109551D01*
X0197460Y0109352D02*
X0199995Y0109352D01*
X0199995Y0109948D02*
X0198077Y0109948D01*
X0198282Y0110146D02*
X0199995Y0110146D01*
X0199995Y0110345D02*
X0198488Y0110345D01*
X0198693Y0110543D02*
X0199995Y0110543D01*
X0199995Y0110742D02*
X0198899Y0110742D01*
X0199105Y0110940D02*
X0199995Y0110940D01*
X0199995Y0111139D02*
X0199310Y0111139D01*
X0199516Y0111337D02*
X0199995Y0111337D01*
X0199995Y0111536D02*
X0199721Y0111536D01*
X0199927Y0111734D02*
X0199995Y0111734D01*
X0199172Y0112727D02*
X0195018Y0112727D01*
X0194820Y0112925D02*
X0199371Y0112925D01*
X0199569Y0113124D02*
X0194621Y0113124D01*
X0194423Y0113322D02*
X0199768Y0113322D01*
X0199966Y0113521D02*
X0194224Y0113521D01*
X0194195Y0113719D02*
X0199995Y0113719D01*
X0199995Y0113918D02*
X0194195Y0113918D01*
X0194195Y0114116D02*
X0199995Y0114116D01*
X0199995Y0114315D02*
X0194195Y0114315D01*
X0194195Y0114513D02*
X0199995Y0114513D01*
X0199995Y0114712D02*
X0194195Y0114712D01*
X0194195Y0114910D02*
X0199995Y0114910D01*
X0199995Y0115109D02*
X0194195Y0115109D01*
X0194195Y0115308D02*
X0199995Y0115308D01*
X0199995Y0115506D02*
X0194195Y0115506D01*
X0194195Y0115705D02*
X0199995Y0115705D01*
X0204195Y0115705D02*
X0209995Y0115705D01*
X0209995Y0115800D02*
X0204195Y0115800D01*
X0204195Y0113550D01*
X0207095Y0110650D01*
X0209995Y0113550D01*
X0209995Y0115800D01*
X0209995Y0115506D02*
X0204195Y0115506D01*
X0204195Y0115308D02*
X0209995Y0115308D01*
X0209995Y0115109D02*
X0204195Y0115109D01*
X0204195Y0114910D02*
X0209995Y0114910D01*
X0209995Y0114712D02*
X0204195Y0114712D01*
X0204195Y0114513D02*
X0209995Y0114513D01*
X0209995Y0114315D02*
X0204195Y0114315D01*
X0204195Y0114116D02*
X0209995Y0114116D01*
X0209995Y0113918D02*
X0204195Y0113918D01*
X0204195Y0113719D02*
X0209995Y0113719D01*
X0209966Y0113521D02*
X0204224Y0113521D01*
X0204423Y0113322D02*
X0209768Y0113322D01*
X0209569Y0113124D02*
X0204621Y0113124D01*
X0204820Y0112925D02*
X0209371Y0112925D01*
X0209172Y0112727D02*
X0205018Y0112727D01*
X0205217Y0112528D02*
X0208973Y0112528D01*
X0208775Y0112330D02*
X0205415Y0112330D01*
X0205614Y0112131D02*
X0208576Y0112131D01*
X0208378Y0111933D02*
X0205812Y0111933D01*
X0206011Y0111734D02*
X0208179Y0111734D01*
X0207981Y0111536D02*
X0206209Y0111536D01*
X0206408Y0111337D02*
X0207782Y0111337D01*
X0207584Y0111139D02*
X0206606Y0111139D01*
X0206805Y0110940D02*
X0207385Y0110940D01*
X0207187Y0110742D02*
X0207003Y0110742D01*
X0206114Y0109948D02*
X0204195Y0109948D01*
X0204195Y0110146D02*
X0205908Y0110146D01*
X0205702Y0110345D02*
X0204195Y0110345D01*
X0204195Y0110543D02*
X0205497Y0110543D01*
X0205291Y0110742D02*
X0204195Y0110742D01*
X0204195Y0110940D02*
X0205086Y0110940D01*
X0204880Y0111139D02*
X0204195Y0111139D01*
X0204195Y0111337D02*
X0204674Y0111337D01*
X0204469Y0111536D02*
X0204195Y0111536D01*
X0204195Y0111734D02*
X0204263Y0111734D01*
X0204195Y0111800D02*
X0204195Y0106800D01*
X0209995Y0106800D01*
X0209995Y0111800D01*
X0207095Y0109000D01*
X0204195Y0111800D01*
X0204195Y0109749D02*
X0206319Y0109749D01*
X0206525Y0109551D02*
X0204195Y0109551D01*
X0204195Y0109352D02*
X0206730Y0109352D01*
X0206936Y0109154D02*
X0204195Y0109154D01*
X0204195Y0108955D02*
X0209995Y0108955D01*
X0209995Y0108757D02*
X0204195Y0108757D01*
X0204195Y0108558D02*
X0209995Y0108558D01*
X0209995Y0108360D02*
X0204195Y0108360D01*
X0204195Y0108161D02*
X0209995Y0108161D01*
X0209995Y0107963D02*
X0204195Y0107963D01*
X0204195Y0107764D02*
X0209995Y0107764D01*
X0209995Y0107566D02*
X0204195Y0107566D01*
X0204195Y0107367D02*
X0209995Y0107367D01*
X0209995Y0107169D02*
X0204195Y0107169D01*
X0204195Y0106970D02*
X0209995Y0106970D01*
X0209995Y0109154D02*
X0207254Y0109154D01*
X0207460Y0109352D02*
X0209995Y0109352D01*
X0209995Y0109551D02*
X0207665Y0109551D01*
X0207871Y0109749D02*
X0209995Y0109749D01*
X0209995Y0109948D02*
X0208077Y0109948D01*
X0208282Y0110146D02*
X0209995Y0110146D01*
X0209995Y0110345D02*
X0208488Y0110345D01*
X0208693Y0110543D02*
X0209995Y0110543D01*
X0209995Y0110742D02*
X0208899Y0110742D01*
X0209105Y0110940D02*
X0209995Y0110940D01*
X0209995Y0111139D02*
X0209310Y0111139D01*
X0209516Y0111337D02*
X0209995Y0111337D01*
X0209995Y0111536D02*
X0209721Y0111536D01*
X0209927Y0111734D02*
X0209995Y0111734D01*
X0214195Y0111734D02*
X0214263Y0111734D01*
X0214195Y0111800D02*
X0214195Y0106800D01*
X0219995Y0106800D01*
X0219995Y0111800D01*
X0217095Y0109000D01*
X0214195Y0111800D01*
X0214195Y0111536D02*
X0214469Y0111536D01*
X0214674Y0111337D02*
X0214195Y0111337D01*
X0214195Y0111139D02*
X0214880Y0111139D01*
X0215086Y0110940D02*
X0214195Y0110940D01*
X0214195Y0110742D02*
X0215291Y0110742D01*
X0215497Y0110543D02*
X0214195Y0110543D01*
X0214195Y0110345D02*
X0215702Y0110345D01*
X0215908Y0110146D02*
X0214195Y0110146D01*
X0214195Y0109948D02*
X0216114Y0109948D01*
X0216319Y0109749D02*
X0214195Y0109749D01*
X0214195Y0109551D02*
X0216525Y0109551D01*
X0216730Y0109352D02*
X0214195Y0109352D01*
X0214195Y0109154D02*
X0216936Y0109154D01*
X0217254Y0109154D02*
X0219995Y0109154D01*
X0219995Y0109352D02*
X0217460Y0109352D01*
X0217665Y0109551D02*
X0219995Y0109551D01*
X0219995Y0109749D02*
X0217871Y0109749D01*
X0218077Y0109948D02*
X0219995Y0109948D01*
X0219995Y0110146D02*
X0218282Y0110146D01*
X0218488Y0110345D02*
X0219995Y0110345D01*
X0219995Y0110543D02*
X0218693Y0110543D01*
X0218899Y0110742D02*
X0219995Y0110742D01*
X0219995Y0110940D02*
X0219105Y0110940D01*
X0219310Y0111139D02*
X0219995Y0111139D01*
X0219995Y0111337D02*
X0219516Y0111337D01*
X0219721Y0111536D02*
X0219995Y0111536D01*
X0219995Y0111734D02*
X0219927Y0111734D01*
X0218973Y0112528D02*
X0215217Y0112528D01*
X0215415Y0112330D02*
X0218775Y0112330D01*
X0218576Y0112131D02*
X0215614Y0112131D01*
X0215812Y0111933D02*
X0218378Y0111933D01*
X0218179Y0111734D02*
X0216011Y0111734D01*
X0216209Y0111536D02*
X0217981Y0111536D01*
X0217782Y0111337D02*
X0216408Y0111337D01*
X0216606Y0111139D02*
X0217584Y0111139D01*
X0217385Y0110940D02*
X0216805Y0110940D01*
X0217003Y0110742D02*
X0217187Y0110742D01*
X0217095Y0110650D02*
X0219995Y0113550D01*
X0219995Y0115800D01*
X0214195Y0115800D01*
X0214195Y0113550D01*
X0217095Y0110650D01*
X0214195Y0108955D02*
X0219995Y0108955D01*
X0219995Y0108757D02*
X0214195Y0108757D01*
X0214195Y0108558D02*
X0219995Y0108558D01*
X0219995Y0108360D02*
X0214195Y0108360D01*
X0214195Y0108161D02*
X0219995Y0108161D01*
X0219995Y0107963D02*
X0214195Y0107963D01*
X0214195Y0107764D02*
X0219995Y0107764D01*
X0219995Y0107566D02*
X0214195Y0107566D01*
X0214195Y0107367D02*
X0219995Y0107367D01*
X0219995Y0107169D02*
X0214195Y0107169D01*
X0214195Y0106970D02*
X0219995Y0106970D01*
X0219172Y0112727D02*
X0215018Y0112727D01*
X0214820Y0112925D02*
X0219371Y0112925D01*
X0219569Y0113124D02*
X0214621Y0113124D01*
X0214423Y0113322D02*
X0219768Y0113322D01*
X0219966Y0113521D02*
X0214224Y0113521D01*
X0214195Y0113719D02*
X0219995Y0113719D01*
X0219995Y0113918D02*
X0214195Y0113918D01*
X0214195Y0114116D02*
X0219995Y0114116D01*
X0219995Y0114315D02*
X0214195Y0114315D01*
X0214195Y0114513D02*
X0219995Y0114513D01*
X0219995Y0114712D02*
X0214195Y0114712D01*
X0214195Y0114910D02*
X0219995Y0114910D01*
X0219995Y0115109D02*
X0214195Y0115109D01*
X0214195Y0115308D02*
X0219995Y0115308D01*
X0219995Y0115506D02*
X0214195Y0115506D01*
X0214195Y0115705D02*
X0219995Y0115705D01*
X0199995Y0107764D02*
X0194195Y0107764D01*
X0194195Y0107566D02*
X0199995Y0107566D01*
X0199995Y0107367D02*
X0194195Y0107367D01*
X0194195Y0107169D02*
X0199995Y0107169D01*
X0199995Y0106970D02*
X0194195Y0106970D01*
X0179995Y0106970D02*
X0174195Y0106970D01*
X0174195Y0106800D02*
X0174195Y0111800D01*
X0177095Y0109000D01*
X0179995Y0111800D01*
X0179995Y0106800D01*
X0174195Y0106800D01*
X0174195Y0107169D02*
X0179995Y0107169D01*
X0179995Y0107367D02*
X0174195Y0107367D01*
X0174195Y0107566D02*
X0179995Y0107566D01*
X0179995Y0107764D02*
X0174195Y0107764D01*
X0174195Y0107963D02*
X0179995Y0107963D01*
X0179995Y0108161D02*
X0174195Y0108161D01*
X0174195Y0108360D02*
X0179995Y0108360D01*
X0179995Y0108558D02*
X0174195Y0108558D01*
X0174195Y0108757D02*
X0179995Y0108757D01*
X0179995Y0108955D02*
X0174195Y0108955D01*
X0174195Y0109154D02*
X0176936Y0109154D01*
X0176730Y0109352D02*
X0174195Y0109352D01*
X0174195Y0109551D02*
X0176525Y0109551D01*
X0176319Y0109749D02*
X0174195Y0109749D01*
X0174195Y0109948D02*
X0176114Y0109948D01*
X0175908Y0110146D02*
X0174195Y0110146D01*
X0174195Y0110345D02*
X0175702Y0110345D01*
X0175497Y0110543D02*
X0174195Y0110543D01*
X0174195Y0110742D02*
X0175291Y0110742D01*
X0175086Y0110940D02*
X0174195Y0110940D01*
X0174195Y0111139D02*
X0174880Y0111139D01*
X0174674Y0111337D02*
X0174195Y0111337D01*
X0174195Y0111536D02*
X0174469Y0111536D01*
X0174263Y0111734D02*
X0174195Y0111734D01*
X0175018Y0112727D02*
X0179172Y0112727D01*
X0179371Y0112925D02*
X0174820Y0112925D01*
X0174621Y0113124D02*
X0179569Y0113124D01*
X0179768Y0113322D02*
X0174423Y0113322D01*
X0174224Y0113521D02*
X0179966Y0113521D01*
X0179995Y0113550D02*
X0179995Y0115800D01*
X0174195Y0115800D01*
X0174195Y0113550D01*
X0177095Y0110650D01*
X0179995Y0113550D01*
X0179995Y0113719D02*
X0174195Y0113719D01*
X0174195Y0113918D02*
X0179995Y0113918D01*
X0179995Y0114116D02*
X0174195Y0114116D01*
X0174195Y0114315D02*
X0179995Y0114315D01*
X0179995Y0114513D02*
X0174195Y0114513D01*
X0174195Y0114712D02*
X0179995Y0114712D01*
X0179995Y0114910D02*
X0174195Y0114910D01*
X0174195Y0115109D02*
X0179995Y0115109D01*
X0179995Y0115308D02*
X0174195Y0115308D01*
X0174195Y0115506D02*
X0179995Y0115506D01*
X0179995Y0115705D02*
X0174195Y0115705D01*
X0169995Y0115705D02*
X0164195Y0115705D01*
X0164195Y0115800D02*
X0169995Y0115800D01*
X0169995Y0113550D01*
X0167095Y0110650D01*
X0164195Y0113550D01*
X0164195Y0115800D01*
X0164195Y0115506D02*
X0169995Y0115506D01*
X0169995Y0115308D02*
X0164195Y0115308D01*
X0164195Y0115109D02*
X0169995Y0115109D01*
X0169995Y0114910D02*
X0164195Y0114910D01*
X0164195Y0114712D02*
X0169995Y0114712D01*
X0169995Y0114513D02*
X0164195Y0114513D01*
X0164195Y0114315D02*
X0169995Y0114315D01*
X0169995Y0114116D02*
X0164195Y0114116D01*
X0164195Y0113918D02*
X0169995Y0113918D01*
X0169995Y0113719D02*
X0164195Y0113719D01*
X0164224Y0113521D02*
X0169966Y0113521D01*
X0169768Y0113322D02*
X0164423Y0113322D01*
X0164621Y0113124D02*
X0169569Y0113124D01*
X0169371Y0112925D02*
X0164820Y0112925D01*
X0165018Y0112727D02*
X0169172Y0112727D01*
X0168973Y0112528D02*
X0165217Y0112528D01*
X0165415Y0112330D02*
X0168775Y0112330D01*
X0168576Y0112131D02*
X0165614Y0112131D01*
X0165812Y0111933D02*
X0168378Y0111933D01*
X0168179Y0111734D02*
X0166011Y0111734D01*
X0166209Y0111536D02*
X0167981Y0111536D01*
X0167782Y0111337D02*
X0166408Y0111337D01*
X0166606Y0111139D02*
X0167584Y0111139D01*
X0167385Y0110940D02*
X0166805Y0110940D01*
X0167003Y0110742D02*
X0167187Y0110742D01*
X0168077Y0109948D02*
X0169995Y0109948D01*
X0169995Y0110146D02*
X0168282Y0110146D01*
X0168488Y0110345D02*
X0169995Y0110345D01*
X0169995Y0110543D02*
X0168693Y0110543D01*
X0168899Y0110742D02*
X0169995Y0110742D01*
X0169995Y0110940D02*
X0169105Y0110940D01*
X0169310Y0111139D02*
X0169995Y0111139D01*
X0169995Y0111337D02*
X0169516Y0111337D01*
X0169721Y0111536D02*
X0169995Y0111536D01*
X0169995Y0111734D02*
X0169927Y0111734D01*
X0169995Y0111800D02*
X0169995Y0106800D01*
X0164195Y0106800D01*
X0164195Y0111800D01*
X0167095Y0109000D01*
X0169995Y0111800D01*
X0169995Y0109749D02*
X0167871Y0109749D01*
X0167665Y0109551D02*
X0169995Y0109551D01*
X0169995Y0109352D02*
X0167460Y0109352D01*
X0167254Y0109154D02*
X0169995Y0109154D01*
X0169995Y0108955D02*
X0164195Y0108955D01*
X0164195Y0108757D02*
X0169995Y0108757D01*
X0169995Y0108558D02*
X0164195Y0108558D01*
X0164195Y0108360D02*
X0169995Y0108360D01*
X0169995Y0108161D02*
X0164195Y0108161D01*
X0164195Y0107963D02*
X0169995Y0107963D01*
X0169995Y0107764D02*
X0164195Y0107764D01*
X0164195Y0107566D02*
X0169995Y0107566D01*
X0169995Y0107367D02*
X0164195Y0107367D01*
X0164195Y0107169D02*
X0169995Y0107169D01*
X0169995Y0106970D02*
X0164195Y0106970D01*
X0164195Y0109154D02*
X0166936Y0109154D01*
X0166730Y0109352D02*
X0164195Y0109352D01*
X0164195Y0109551D02*
X0166525Y0109551D01*
X0166319Y0109749D02*
X0164195Y0109749D01*
X0164195Y0109948D02*
X0166114Y0109948D01*
X0165908Y0110146D02*
X0164195Y0110146D01*
X0164195Y0110345D02*
X0165702Y0110345D01*
X0165497Y0110543D02*
X0164195Y0110543D01*
X0164195Y0110742D02*
X0165291Y0110742D01*
X0165086Y0110940D02*
X0164195Y0110940D01*
X0164195Y0111139D02*
X0164880Y0111139D01*
X0164674Y0111337D02*
X0164195Y0111337D01*
X0164195Y0111536D02*
X0164469Y0111536D01*
X0164263Y0111734D02*
X0164195Y0111734D01*
X0159995Y0111734D02*
X0159927Y0111734D01*
X0159995Y0111800D02*
X0159995Y0106800D01*
X0154195Y0106800D01*
X0154195Y0111800D01*
X0157095Y0109000D01*
X0159995Y0111800D01*
X0159995Y0111536D02*
X0159721Y0111536D01*
X0159516Y0111337D02*
X0159995Y0111337D01*
X0159995Y0111139D02*
X0159310Y0111139D01*
X0159105Y0110940D02*
X0159995Y0110940D01*
X0159995Y0110742D02*
X0158899Y0110742D01*
X0158693Y0110543D02*
X0159995Y0110543D01*
X0159995Y0110345D02*
X0158488Y0110345D01*
X0158282Y0110146D02*
X0159995Y0110146D01*
X0159995Y0109948D02*
X0158077Y0109948D01*
X0157871Y0109749D02*
X0159995Y0109749D01*
X0159995Y0109551D02*
X0157665Y0109551D01*
X0157460Y0109352D02*
X0159995Y0109352D01*
X0159995Y0109154D02*
X0157254Y0109154D01*
X0156936Y0109154D02*
X0154195Y0109154D01*
X0154195Y0109352D02*
X0156730Y0109352D01*
X0156525Y0109551D02*
X0154195Y0109551D01*
X0154195Y0109749D02*
X0156319Y0109749D01*
X0156114Y0109948D02*
X0154195Y0109948D01*
X0154195Y0110146D02*
X0155908Y0110146D01*
X0155702Y0110345D02*
X0154195Y0110345D01*
X0154195Y0110543D02*
X0155497Y0110543D01*
X0155291Y0110742D02*
X0154195Y0110742D01*
X0154195Y0110940D02*
X0155086Y0110940D01*
X0154880Y0111139D02*
X0154195Y0111139D01*
X0154195Y0111337D02*
X0154674Y0111337D01*
X0154469Y0111536D02*
X0154195Y0111536D01*
X0154195Y0111734D02*
X0154263Y0111734D01*
X0155217Y0112528D02*
X0158973Y0112528D01*
X0158775Y0112330D02*
X0155415Y0112330D01*
X0155614Y0112131D02*
X0158576Y0112131D01*
X0158378Y0111933D02*
X0155812Y0111933D01*
X0156011Y0111734D02*
X0158179Y0111734D01*
X0157981Y0111536D02*
X0156209Y0111536D01*
X0156408Y0111337D02*
X0157782Y0111337D01*
X0157584Y0111139D02*
X0156606Y0111139D01*
X0156805Y0110940D02*
X0157385Y0110940D01*
X0157187Y0110742D02*
X0157003Y0110742D01*
X0157095Y0110650D02*
X0159995Y0113550D01*
X0159995Y0115800D01*
X0154195Y0115800D01*
X0154195Y0113550D01*
X0157095Y0110650D01*
X0154195Y0108955D02*
X0159995Y0108955D01*
X0159995Y0108757D02*
X0154195Y0108757D01*
X0154195Y0108558D02*
X0159995Y0108558D01*
X0159995Y0108360D02*
X0154195Y0108360D01*
X0154195Y0108161D02*
X0159995Y0108161D01*
X0159995Y0107963D02*
X0154195Y0107963D01*
X0154195Y0107764D02*
X0159995Y0107764D01*
X0159995Y0107566D02*
X0154195Y0107566D01*
X0154195Y0107367D02*
X0159995Y0107367D01*
X0159995Y0107169D02*
X0154195Y0107169D01*
X0154195Y0106970D02*
X0159995Y0106970D01*
X0159172Y0112727D02*
X0155018Y0112727D01*
X0154820Y0112925D02*
X0159371Y0112925D01*
X0159569Y0113124D02*
X0154621Y0113124D01*
X0154423Y0113322D02*
X0159768Y0113322D01*
X0159966Y0113521D02*
X0154224Y0113521D01*
X0154195Y0113719D02*
X0159995Y0113719D01*
X0159995Y0113918D02*
X0154195Y0113918D01*
X0154195Y0114116D02*
X0159995Y0114116D01*
X0159995Y0114315D02*
X0154195Y0114315D01*
X0154195Y0114513D02*
X0159995Y0114513D01*
X0159995Y0114712D02*
X0154195Y0114712D01*
X0154195Y0114910D02*
X0159995Y0114910D01*
X0159995Y0115109D02*
X0154195Y0115109D01*
X0154195Y0115308D02*
X0159995Y0115308D01*
X0159995Y0115506D02*
X0154195Y0115506D01*
X0154195Y0115705D02*
X0159995Y0115705D01*
X0149995Y0115705D02*
X0144195Y0115705D01*
X0144195Y0115800D02*
X0149995Y0115800D01*
X0149995Y0113550D01*
X0147095Y0110650D01*
X0144195Y0113550D01*
X0144195Y0115800D01*
X0144195Y0115506D02*
X0149995Y0115506D01*
X0149995Y0115308D02*
X0144195Y0115308D01*
X0144195Y0115109D02*
X0149995Y0115109D01*
X0149995Y0114910D02*
X0144195Y0114910D01*
X0144195Y0114712D02*
X0149995Y0114712D01*
X0149995Y0114513D02*
X0144195Y0114513D01*
X0144195Y0114315D02*
X0149995Y0114315D01*
X0149995Y0114116D02*
X0144195Y0114116D01*
X0144195Y0113918D02*
X0149995Y0113918D01*
X0149995Y0113719D02*
X0144195Y0113719D01*
X0144224Y0113521D02*
X0149966Y0113521D01*
X0149768Y0113322D02*
X0144423Y0113322D01*
X0144621Y0113124D02*
X0149569Y0113124D01*
X0149371Y0112925D02*
X0144820Y0112925D01*
X0145018Y0112727D02*
X0149172Y0112727D01*
X0148973Y0112528D02*
X0145217Y0112528D01*
X0145415Y0112330D02*
X0148775Y0112330D01*
X0148576Y0112131D02*
X0145614Y0112131D01*
X0145812Y0111933D02*
X0148378Y0111933D01*
X0148179Y0111734D02*
X0146011Y0111734D01*
X0146209Y0111536D02*
X0147981Y0111536D01*
X0147782Y0111337D02*
X0146408Y0111337D01*
X0146606Y0111139D02*
X0147584Y0111139D01*
X0147385Y0110940D02*
X0146805Y0110940D01*
X0147003Y0110742D02*
X0147187Y0110742D01*
X0148077Y0109948D02*
X0149995Y0109948D01*
X0149995Y0110146D02*
X0148282Y0110146D01*
X0148488Y0110345D02*
X0149995Y0110345D01*
X0149995Y0110543D02*
X0148693Y0110543D01*
X0148899Y0110742D02*
X0149995Y0110742D01*
X0149995Y0110940D02*
X0149105Y0110940D01*
X0149310Y0111139D02*
X0149995Y0111139D01*
X0149995Y0111337D02*
X0149516Y0111337D01*
X0149721Y0111536D02*
X0149995Y0111536D01*
X0149995Y0111734D02*
X0149927Y0111734D01*
X0149995Y0111800D02*
X0149995Y0106800D01*
X0144195Y0106800D01*
X0144195Y0111800D01*
X0147095Y0109000D01*
X0149995Y0111800D01*
X0149995Y0109749D02*
X0147871Y0109749D01*
X0147665Y0109551D02*
X0149995Y0109551D01*
X0149995Y0109352D02*
X0147460Y0109352D01*
X0147254Y0109154D02*
X0149995Y0109154D01*
X0149995Y0108955D02*
X0144195Y0108955D01*
X0144195Y0108757D02*
X0149995Y0108757D01*
X0149995Y0108558D02*
X0144195Y0108558D01*
X0144195Y0108360D02*
X0149995Y0108360D01*
X0149995Y0108161D02*
X0144195Y0108161D01*
X0144195Y0107963D02*
X0149995Y0107963D01*
X0149995Y0107764D02*
X0144195Y0107764D01*
X0144195Y0107566D02*
X0149995Y0107566D01*
X0149995Y0107367D02*
X0144195Y0107367D01*
X0144195Y0107169D02*
X0149995Y0107169D01*
X0149995Y0106970D02*
X0144195Y0106970D01*
X0144195Y0109154D02*
X0146936Y0109154D01*
X0146730Y0109352D02*
X0144195Y0109352D01*
X0144195Y0109551D02*
X0146525Y0109551D01*
X0146319Y0109749D02*
X0144195Y0109749D01*
X0144195Y0109948D02*
X0146114Y0109948D01*
X0145908Y0110146D02*
X0144195Y0110146D01*
X0144195Y0110345D02*
X0145702Y0110345D01*
X0145497Y0110543D02*
X0144195Y0110543D01*
X0144195Y0110742D02*
X0145291Y0110742D01*
X0145086Y0110940D02*
X0144195Y0110940D01*
X0144195Y0111139D02*
X0144880Y0111139D01*
X0144674Y0111337D02*
X0144195Y0111337D01*
X0144195Y0111536D02*
X0144469Y0111536D01*
X0144263Y0111734D02*
X0144195Y0111734D01*
X0139995Y0111734D02*
X0139927Y0111734D01*
X0139995Y0111800D02*
X0137095Y0109000D01*
X0134195Y0111800D01*
X0134195Y0106800D01*
X0139995Y0106800D01*
X0139995Y0111800D01*
X0139995Y0111536D02*
X0139721Y0111536D01*
X0139516Y0111337D02*
X0139995Y0111337D01*
X0139995Y0111139D02*
X0139310Y0111139D01*
X0139105Y0110940D02*
X0139995Y0110940D01*
X0139995Y0110742D02*
X0138899Y0110742D01*
X0138693Y0110543D02*
X0139995Y0110543D01*
X0139995Y0110345D02*
X0138488Y0110345D01*
X0138282Y0110146D02*
X0139995Y0110146D01*
X0139995Y0109948D02*
X0138077Y0109948D01*
X0137871Y0109749D02*
X0139995Y0109749D01*
X0139995Y0109551D02*
X0137665Y0109551D01*
X0137460Y0109352D02*
X0139995Y0109352D01*
X0139995Y0109154D02*
X0137254Y0109154D01*
X0136936Y0109154D02*
X0134195Y0109154D01*
X0134195Y0109352D02*
X0136730Y0109352D01*
X0136525Y0109551D02*
X0134195Y0109551D01*
X0134195Y0109749D02*
X0136319Y0109749D01*
X0136114Y0109948D02*
X0134195Y0109948D01*
X0134195Y0110146D02*
X0135908Y0110146D01*
X0135702Y0110345D02*
X0134195Y0110345D01*
X0134195Y0110543D02*
X0135497Y0110543D01*
X0135291Y0110742D02*
X0134195Y0110742D01*
X0134195Y0110940D02*
X0135086Y0110940D01*
X0134880Y0111139D02*
X0134195Y0111139D01*
X0134195Y0111337D02*
X0134674Y0111337D01*
X0134469Y0111536D02*
X0134195Y0111536D01*
X0134195Y0111734D02*
X0134263Y0111734D01*
X0135217Y0112528D02*
X0138973Y0112528D01*
X0138775Y0112330D02*
X0135415Y0112330D01*
X0135614Y0112131D02*
X0138576Y0112131D01*
X0138378Y0111933D02*
X0135812Y0111933D01*
X0136011Y0111734D02*
X0138179Y0111734D01*
X0137981Y0111536D02*
X0136209Y0111536D01*
X0136408Y0111337D02*
X0137782Y0111337D01*
X0137584Y0111139D02*
X0136606Y0111139D01*
X0136805Y0110940D02*
X0137385Y0110940D01*
X0137187Y0110742D02*
X0137003Y0110742D01*
X0137095Y0110650D02*
X0139995Y0113550D01*
X0139995Y0115800D01*
X0134195Y0115800D01*
X0134195Y0113550D01*
X0137095Y0110650D01*
X0134195Y0108955D02*
X0139995Y0108955D01*
X0139995Y0108757D02*
X0134195Y0108757D01*
X0134195Y0108558D02*
X0139995Y0108558D01*
X0139995Y0108360D02*
X0134195Y0108360D01*
X0134195Y0108161D02*
X0139995Y0108161D01*
X0139995Y0107963D02*
X0134195Y0107963D01*
X0134195Y0107764D02*
X0139995Y0107764D01*
X0139995Y0107566D02*
X0134195Y0107566D01*
X0134195Y0107367D02*
X0139995Y0107367D01*
X0139995Y0107169D02*
X0134195Y0107169D01*
X0134195Y0106970D02*
X0139995Y0106970D01*
X0139172Y0112727D02*
X0135018Y0112727D01*
X0134820Y0112925D02*
X0139371Y0112925D01*
X0139569Y0113124D02*
X0134621Y0113124D01*
X0134423Y0113322D02*
X0139768Y0113322D01*
X0139966Y0113521D02*
X0134224Y0113521D01*
X0134195Y0113719D02*
X0139995Y0113719D01*
X0139995Y0113918D02*
X0134195Y0113918D01*
X0134195Y0114116D02*
X0139995Y0114116D01*
X0139995Y0114315D02*
X0134195Y0114315D01*
X0134195Y0114513D02*
X0139995Y0114513D01*
X0139995Y0114712D02*
X0134195Y0114712D01*
X0134195Y0114910D02*
X0139995Y0114910D01*
X0139995Y0115109D02*
X0134195Y0115109D01*
X0134195Y0115308D02*
X0139995Y0115308D01*
X0139995Y0115506D02*
X0134195Y0115506D01*
X0134195Y0115705D02*
X0139995Y0115705D01*
X0175217Y0112528D02*
X0178973Y0112528D01*
X0178775Y0112330D02*
X0175415Y0112330D01*
X0175614Y0112131D02*
X0178576Y0112131D01*
X0178378Y0111933D02*
X0175812Y0111933D01*
X0176011Y0111734D02*
X0178179Y0111734D01*
X0177981Y0111536D02*
X0176209Y0111536D01*
X0176408Y0111337D02*
X0177782Y0111337D01*
X0177584Y0111139D02*
X0176606Y0111139D01*
X0176805Y0110940D02*
X0177385Y0110940D01*
X0177187Y0110742D02*
X0177003Y0110742D01*
X0177871Y0109749D02*
X0179995Y0109749D01*
X0179995Y0109551D02*
X0177665Y0109551D01*
X0177460Y0109352D02*
X0179995Y0109352D01*
X0179995Y0109154D02*
X0177254Y0109154D01*
X0178077Y0109948D02*
X0179995Y0109948D01*
X0179995Y0110146D02*
X0178282Y0110146D01*
X0178488Y0110345D02*
X0179995Y0110345D01*
X0179995Y0110543D02*
X0178693Y0110543D01*
X0178899Y0110742D02*
X0179995Y0110742D01*
X0179995Y0110940D02*
X0179105Y0110940D01*
X0179310Y0111139D02*
X0179995Y0111139D01*
X0179995Y0111337D02*
X0179516Y0111337D01*
X0179721Y0111536D02*
X0179995Y0111536D01*
X0179995Y0111734D02*
X0179927Y0111734D01*
X0179995Y0055800D02*
X0174195Y0055800D01*
X0174195Y0053550D01*
X0177095Y0050650D01*
X0179995Y0053550D01*
X0179995Y0055800D01*
X0179995Y0055754D02*
X0174195Y0055754D01*
X0174195Y0055556D02*
X0179995Y0055556D01*
X0179995Y0055357D02*
X0174195Y0055357D01*
X0174195Y0055159D02*
X0179995Y0055159D01*
X0179995Y0054960D02*
X0174195Y0054960D01*
X0174195Y0054762D02*
X0179995Y0054762D01*
X0179995Y0054563D02*
X0174195Y0054563D01*
X0174195Y0054365D02*
X0179995Y0054365D01*
X0179995Y0054166D02*
X0174195Y0054166D01*
X0174195Y0053968D02*
X0179995Y0053968D01*
X0179995Y0053769D02*
X0174195Y0053769D01*
X0174195Y0053570D02*
X0179995Y0053570D01*
X0179817Y0053372D02*
X0174373Y0053372D01*
X0174572Y0053173D02*
X0179619Y0053173D01*
X0179420Y0052975D02*
X0174770Y0052975D01*
X0174969Y0052776D02*
X0179222Y0052776D01*
X0179023Y0052578D02*
X0175167Y0052578D01*
X0175366Y0052379D02*
X0178825Y0052379D01*
X0178626Y0052181D02*
X0175564Y0052181D01*
X0175763Y0051982D02*
X0178428Y0051982D01*
X0178229Y0051784D02*
X0175961Y0051784D01*
X0176160Y0051585D02*
X0178031Y0051585D01*
X0177832Y0051387D02*
X0176358Y0051387D01*
X0176557Y0051188D02*
X0177633Y0051188D01*
X0177435Y0050990D02*
X0176755Y0050990D01*
X0176954Y0050791D02*
X0177236Y0050791D01*
X0178128Y0049997D02*
X0179995Y0049997D01*
X0179995Y0049799D02*
X0177922Y0049799D01*
X0177717Y0049600D02*
X0179995Y0049600D01*
X0179995Y0049402D02*
X0177511Y0049402D01*
X0177306Y0049203D02*
X0179995Y0049203D01*
X0179995Y0049005D02*
X0177100Y0049005D01*
X0177095Y0049000D02*
X0179995Y0051800D01*
X0179995Y0046800D01*
X0174195Y0046800D01*
X0174195Y0051800D01*
X0177095Y0049000D01*
X0177090Y0049005D02*
X0174195Y0049005D01*
X0174195Y0049203D02*
X0176885Y0049203D01*
X0176679Y0049402D02*
X0174195Y0049402D01*
X0174195Y0049600D02*
X0176473Y0049600D01*
X0176268Y0049799D02*
X0174195Y0049799D01*
X0174195Y0049997D02*
X0176062Y0049997D01*
X0175857Y0050196D02*
X0174195Y0050196D01*
X0174195Y0050394D02*
X0175651Y0050394D01*
X0175445Y0050593D02*
X0174195Y0050593D01*
X0174195Y0050791D02*
X0175240Y0050791D01*
X0175034Y0050990D02*
X0174195Y0050990D01*
X0174195Y0051188D02*
X0174829Y0051188D01*
X0174623Y0051387D02*
X0174195Y0051387D01*
X0174195Y0051585D02*
X0174417Y0051585D01*
X0174212Y0051784D02*
X0174195Y0051784D01*
X0174195Y0048806D02*
X0179995Y0048806D01*
X0179995Y0048608D02*
X0174195Y0048608D01*
X0174195Y0048409D02*
X0179995Y0048409D01*
X0179995Y0048211D02*
X0174195Y0048211D01*
X0174195Y0048012D02*
X0179995Y0048012D01*
X0179995Y0047814D02*
X0174195Y0047814D01*
X0174195Y0047615D02*
X0179995Y0047615D01*
X0179995Y0047417D02*
X0174195Y0047417D01*
X0174195Y0047218D02*
X0179995Y0047218D01*
X0179995Y0047020D02*
X0174195Y0047020D01*
X0174195Y0046821D02*
X0179995Y0046821D01*
X0179995Y0050196D02*
X0178334Y0050196D01*
X0178539Y0050394D02*
X0179995Y0050394D01*
X0179995Y0050593D02*
X0178745Y0050593D01*
X0178950Y0050791D02*
X0179995Y0050791D01*
X0179995Y0050990D02*
X0179156Y0050990D01*
X0179362Y0051188D02*
X0179995Y0051188D01*
X0179995Y0051387D02*
X0179567Y0051387D01*
X0179773Y0051585D02*
X0179995Y0051585D01*
X0179978Y0051784D02*
X0179995Y0051784D01*
X0184195Y0051784D02*
X0184212Y0051784D01*
X0184195Y0051800D02*
X0184195Y0046800D01*
X0189995Y0046800D01*
X0189995Y0051800D01*
X0187095Y0049000D01*
X0184195Y0051800D01*
X0184195Y0051585D02*
X0184417Y0051585D01*
X0184623Y0051387D02*
X0184195Y0051387D01*
X0184195Y0051188D02*
X0184829Y0051188D01*
X0185034Y0050990D02*
X0184195Y0050990D01*
X0184195Y0050791D02*
X0185240Y0050791D01*
X0185445Y0050593D02*
X0184195Y0050593D01*
X0184195Y0050394D02*
X0185651Y0050394D01*
X0185857Y0050196D02*
X0184195Y0050196D01*
X0184195Y0049997D02*
X0186062Y0049997D01*
X0186268Y0049799D02*
X0184195Y0049799D01*
X0184195Y0049600D02*
X0186473Y0049600D01*
X0186679Y0049402D02*
X0184195Y0049402D01*
X0184195Y0049203D02*
X0186885Y0049203D01*
X0187090Y0049005D02*
X0184195Y0049005D01*
X0184195Y0048806D02*
X0189995Y0048806D01*
X0189995Y0048608D02*
X0184195Y0048608D01*
X0184195Y0048409D02*
X0189995Y0048409D01*
X0189995Y0048211D02*
X0184195Y0048211D01*
X0184195Y0048012D02*
X0189995Y0048012D01*
X0189995Y0047814D02*
X0184195Y0047814D01*
X0184195Y0047615D02*
X0189995Y0047615D01*
X0189995Y0047417D02*
X0184195Y0047417D01*
X0184195Y0047218D02*
X0189995Y0047218D01*
X0189995Y0047020D02*
X0184195Y0047020D01*
X0184195Y0046821D02*
X0189995Y0046821D01*
X0189995Y0049005D02*
X0187100Y0049005D01*
X0187306Y0049203D02*
X0189995Y0049203D01*
X0189995Y0049402D02*
X0187511Y0049402D01*
X0187717Y0049600D02*
X0189995Y0049600D01*
X0189995Y0049799D02*
X0187922Y0049799D01*
X0188128Y0049997D02*
X0189995Y0049997D01*
X0189995Y0050196D02*
X0188334Y0050196D01*
X0188539Y0050394D02*
X0189995Y0050394D01*
X0189995Y0050593D02*
X0188745Y0050593D01*
X0188950Y0050791D02*
X0189995Y0050791D01*
X0189995Y0050990D02*
X0189156Y0050990D01*
X0189362Y0051188D02*
X0189995Y0051188D01*
X0189995Y0051387D02*
X0189567Y0051387D01*
X0189773Y0051585D02*
X0189995Y0051585D01*
X0189978Y0051784D02*
X0189995Y0051784D01*
X0189023Y0052578D02*
X0185167Y0052578D01*
X0184969Y0052776D02*
X0189222Y0052776D01*
X0189420Y0052975D02*
X0184770Y0052975D01*
X0184572Y0053173D02*
X0189619Y0053173D01*
X0189817Y0053372D02*
X0184373Y0053372D01*
X0184195Y0053550D02*
X0187095Y0050650D01*
X0189995Y0053550D01*
X0189995Y0055800D01*
X0184195Y0055800D01*
X0184195Y0053550D01*
X0184195Y0053570D02*
X0189995Y0053570D01*
X0189995Y0053769D02*
X0184195Y0053769D01*
X0184195Y0053968D02*
X0189995Y0053968D01*
X0189995Y0054166D02*
X0184195Y0054166D01*
X0184195Y0054365D02*
X0189995Y0054365D01*
X0189995Y0054563D02*
X0184195Y0054563D01*
X0184195Y0054762D02*
X0189995Y0054762D01*
X0189995Y0054960D02*
X0184195Y0054960D01*
X0184195Y0055159D02*
X0189995Y0055159D01*
X0189995Y0055357D02*
X0184195Y0055357D01*
X0184195Y0055556D02*
X0189995Y0055556D01*
X0189995Y0055754D02*
X0184195Y0055754D01*
X0185366Y0052379D02*
X0188825Y0052379D01*
X0188626Y0052181D02*
X0185564Y0052181D01*
X0185763Y0051982D02*
X0188428Y0051982D01*
X0188229Y0051784D02*
X0185961Y0051784D01*
X0186160Y0051585D02*
X0188031Y0051585D01*
X0187832Y0051387D02*
X0186358Y0051387D01*
X0186557Y0051188D02*
X0187633Y0051188D01*
X0187435Y0050990D02*
X0186755Y0050990D01*
X0186954Y0050791D02*
X0187236Y0050791D01*
X0194195Y0050791D02*
X0195240Y0050791D01*
X0195445Y0050593D02*
X0194195Y0050593D01*
X0194195Y0050394D02*
X0195651Y0050394D01*
X0195857Y0050196D02*
X0194195Y0050196D01*
X0194195Y0049997D02*
X0196062Y0049997D01*
X0196268Y0049799D02*
X0194195Y0049799D01*
X0194195Y0049600D02*
X0196473Y0049600D01*
X0196679Y0049402D02*
X0194195Y0049402D01*
X0194195Y0049203D02*
X0196885Y0049203D01*
X0197090Y0049005D02*
X0194195Y0049005D01*
X0194195Y0048806D02*
X0199995Y0048806D01*
X0199995Y0048608D02*
X0194195Y0048608D01*
X0194195Y0048409D02*
X0199995Y0048409D01*
X0199995Y0048211D02*
X0194195Y0048211D01*
X0194195Y0048012D02*
X0199995Y0048012D01*
X0199995Y0047814D02*
X0194195Y0047814D01*
X0194195Y0047615D02*
X0199995Y0047615D01*
X0199995Y0047417D02*
X0194195Y0047417D01*
X0194195Y0047218D02*
X0199995Y0047218D01*
X0199995Y0047020D02*
X0194195Y0047020D01*
X0194195Y0046821D02*
X0199995Y0046821D01*
X0199995Y0046800D02*
X0194195Y0046800D01*
X0194195Y0051800D01*
X0197095Y0049000D01*
X0199995Y0051800D01*
X0199995Y0046800D01*
X0199995Y0049005D02*
X0197100Y0049005D01*
X0197306Y0049203D02*
X0199995Y0049203D01*
X0199995Y0049402D02*
X0197511Y0049402D01*
X0197717Y0049600D02*
X0199995Y0049600D01*
X0199995Y0049799D02*
X0197922Y0049799D01*
X0198128Y0049997D02*
X0199995Y0049997D01*
X0199995Y0050196D02*
X0198334Y0050196D01*
X0198539Y0050394D02*
X0199995Y0050394D01*
X0199995Y0050593D02*
X0198745Y0050593D01*
X0198950Y0050791D02*
X0199995Y0050791D01*
X0199995Y0050990D02*
X0199156Y0050990D01*
X0199362Y0051188D02*
X0199995Y0051188D01*
X0199995Y0051387D02*
X0199567Y0051387D01*
X0199773Y0051585D02*
X0199995Y0051585D01*
X0199978Y0051784D02*
X0199995Y0051784D01*
X0199023Y0052578D02*
X0195167Y0052578D01*
X0194969Y0052776D02*
X0199222Y0052776D01*
X0199420Y0052975D02*
X0194770Y0052975D01*
X0194572Y0053173D02*
X0199619Y0053173D01*
X0199817Y0053372D02*
X0194373Y0053372D01*
X0194195Y0053550D02*
X0197095Y0050650D01*
X0199995Y0053550D01*
X0199995Y0055800D01*
X0194195Y0055800D01*
X0194195Y0053550D01*
X0194195Y0053570D02*
X0199995Y0053570D01*
X0199995Y0053769D02*
X0194195Y0053769D01*
X0194195Y0053968D02*
X0199995Y0053968D01*
X0199995Y0054166D02*
X0194195Y0054166D01*
X0194195Y0054365D02*
X0199995Y0054365D01*
X0199995Y0054563D02*
X0194195Y0054563D01*
X0194195Y0054762D02*
X0199995Y0054762D01*
X0199995Y0054960D02*
X0194195Y0054960D01*
X0194195Y0055159D02*
X0199995Y0055159D01*
X0199995Y0055357D02*
X0194195Y0055357D01*
X0194195Y0055556D02*
X0199995Y0055556D01*
X0199995Y0055754D02*
X0194195Y0055754D01*
X0195366Y0052379D02*
X0198825Y0052379D01*
X0198626Y0052181D02*
X0195564Y0052181D01*
X0195763Y0051982D02*
X0198428Y0051982D01*
X0198229Y0051784D02*
X0195961Y0051784D01*
X0196160Y0051585D02*
X0198031Y0051585D01*
X0197832Y0051387D02*
X0196358Y0051387D01*
X0196557Y0051188D02*
X0197633Y0051188D01*
X0197435Y0050990D02*
X0196755Y0050990D01*
X0196954Y0050791D02*
X0197236Y0050791D01*
X0195034Y0050990D02*
X0194195Y0050990D01*
X0194195Y0051188D02*
X0194829Y0051188D01*
X0194623Y0051387D02*
X0194195Y0051387D01*
X0194195Y0051585D02*
X0194417Y0051585D01*
X0194212Y0051784D02*
X0194195Y0051784D01*
X0204195Y0051784D02*
X0204212Y0051784D01*
X0204195Y0051800D02*
X0204195Y0046800D01*
X0209995Y0046800D01*
X0209995Y0051800D01*
X0207095Y0049000D01*
X0204195Y0051800D01*
X0204195Y0051585D02*
X0204417Y0051585D01*
X0204623Y0051387D02*
X0204195Y0051387D01*
X0204195Y0051188D02*
X0204829Y0051188D01*
X0205034Y0050990D02*
X0204195Y0050990D01*
X0204195Y0050791D02*
X0205240Y0050791D01*
X0205445Y0050593D02*
X0204195Y0050593D01*
X0204195Y0050394D02*
X0205651Y0050394D01*
X0205857Y0050196D02*
X0204195Y0050196D01*
X0204195Y0049997D02*
X0206062Y0049997D01*
X0206268Y0049799D02*
X0204195Y0049799D01*
X0204195Y0049600D02*
X0206473Y0049600D01*
X0206679Y0049402D02*
X0204195Y0049402D01*
X0204195Y0049203D02*
X0206885Y0049203D01*
X0207090Y0049005D02*
X0204195Y0049005D01*
X0204195Y0048806D02*
X0209995Y0048806D01*
X0209995Y0048608D02*
X0204195Y0048608D01*
X0204195Y0048409D02*
X0209995Y0048409D01*
X0209995Y0048211D02*
X0204195Y0048211D01*
X0204195Y0048012D02*
X0209995Y0048012D01*
X0209995Y0047814D02*
X0204195Y0047814D01*
X0204195Y0047615D02*
X0209995Y0047615D01*
X0209995Y0047417D02*
X0204195Y0047417D01*
X0204195Y0047218D02*
X0209995Y0047218D01*
X0209995Y0047020D02*
X0204195Y0047020D01*
X0204195Y0046821D02*
X0209995Y0046821D01*
X0209995Y0049005D02*
X0207100Y0049005D01*
X0207306Y0049203D02*
X0209995Y0049203D01*
X0209995Y0049402D02*
X0207511Y0049402D01*
X0207717Y0049600D02*
X0209995Y0049600D01*
X0209995Y0049799D02*
X0207922Y0049799D01*
X0208128Y0049997D02*
X0209995Y0049997D01*
X0209995Y0050196D02*
X0208334Y0050196D01*
X0208539Y0050394D02*
X0209995Y0050394D01*
X0209995Y0050593D02*
X0208745Y0050593D01*
X0208950Y0050791D02*
X0209995Y0050791D01*
X0209995Y0050990D02*
X0209156Y0050990D01*
X0209362Y0051188D02*
X0209995Y0051188D01*
X0209995Y0051387D02*
X0209567Y0051387D01*
X0209773Y0051585D02*
X0209995Y0051585D01*
X0209978Y0051784D02*
X0209995Y0051784D01*
X0209023Y0052578D02*
X0205167Y0052578D01*
X0204969Y0052776D02*
X0209222Y0052776D01*
X0209420Y0052975D02*
X0204770Y0052975D01*
X0204572Y0053173D02*
X0209619Y0053173D01*
X0209817Y0053372D02*
X0204373Y0053372D01*
X0204195Y0053550D02*
X0207095Y0050650D01*
X0209995Y0053550D01*
X0209995Y0055800D01*
X0204195Y0055800D01*
X0204195Y0053550D01*
X0204195Y0053570D02*
X0209995Y0053570D01*
X0209995Y0053769D02*
X0204195Y0053769D01*
X0204195Y0053968D02*
X0209995Y0053968D01*
X0209995Y0054166D02*
X0204195Y0054166D01*
X0204195Y0054365D02*
X0209995Y0054365D01*
X0209995Y0054563D02*
X0204195Y0054563D01*
X0204195Y0054762D02*
X0209995Y0054762D01*
X0209995Y0054960D02*
X0204195Y0054960D01*
X0204195Y0055159D02*
X0209995Y0055159D01*
X0209995Y0055357D02*
X0204195Y0055357D01*
X0204195Y0055556D02*
X0209995Y0055556D01*
X0209995Y0055754D02*
X0204195Y0055754D01*
X0205366Y0052379D02*
X0208825Y0052379D01*
X0208626Y0052181D02*
X0205564Y0052181D01*
X0205763Y0051982D02*
X0208428Y0051982D01*
X0208229Y0051784D02*
X0205961Y0051784D01*
X0206160Y0051585D02*
X0208031Y0051585D01*
X0207832Y0051387D02*
X0206358Y0051387D01*
X0206557Y0051188D02*
X0207633Y0051188D01*
X0207435Y0050990D02*
X0206755Y0050990D01*
X0206954Y0050791D02*
X0207236Y0050791D01*
X0169995Y0050791D02*
X0168950Y0050791D01*
X0168745Y0050593D02*
X0169995Y0050593D01*
X0169995Y0050394D02*
X0168539Y0050394D01*
X0168334Y0050196D02*
X0169995Y0050196D01*
X0169995Y0049997D02*
X0168128Y0049997D01*
X0167922Y0049799D02*
X0169995Y0049799D01*
X0169995Y0049600D02*
X0167717Y0049600D01*
X0167511Y0049402D02*
X0169995Y0049402D01*
X0169995Y0049203D02*
X0167306Y0049203D01*
X0167100Y0049005D02*
X0169995Y0049005D01*
X0169995Y0048806D02*
X0164195Y0048806D01*
X0164195Y0048608D02*
X0169995Y0048608D01*
X0169995Y0048409D02*
X0164195Y0048409D01*
X0164195Y0048211D02*
X0169995Y0048211D01*
X0169995Y0048012D02*
X0164195Y0048012D01*
X0164195Y0047814D02*
X0169995Y0047814D01*
X0169995Y0047615D02*
X0164195Y0047615D01*
X0164195Y0047417D02*
X0169995Y0047417D01*
X0169995Y0047218D02*
X0164195Y0047218D01*
X0164195Y0047020D02*
X0169995Y0047020D01*
X0169995Y0046821D02*
X0164195Y0046821D01*
X0164195Y0046800D02*
X0164195Y0051800D01*
X0167095Y0049000D01*
X0169995Y0051800D01*
X0169995Y0046800D01*
X0164195Y0046800D01*
X0164195Y0049005D02*
X0167090Y0049005D01*
X0166885Y0049203D02*
X0164195Y0049203D01*
X0164195Y0049402D02*
X0166679Y0049402D01*
X0166473Y0049600D02*
X0164195Y0049600D01*
X0164195Y0049799D02*
X0166268Y0049799D01*
X0166062Y0049997D02*
X0164195Y0049997D01*
X0164195Y0050196D02*
X0165857Y0050196D01*
X0165651Y0050394D02*
X0164195Y0050394D01*
X0164195Y0050593D02*
X0165445Y0050593D01*
X0165240Y0050791D02*
X0164195Y0050791D01*
X0164195Y0050990D02*
X0165034Y0050990D01*
X0164829Y0051188D02*
X0164195Y0051188D01*
X0164195Y0051387D02*
X0164623Y0051387D01*
X0164417Y0051585D02*
X0164195Y0051585D01*
X0164195Y0051784D02*
X0164212Y0051784D01*
X0165167Y0052578D02*
X0169023Y0052578D01*
X0168825Y0052379D02*
X0165366Y0052379D01*
X0165564Y0052181D02*
X0168626Y0052181D01*
X0168428Y0051982D02*
X0165763Y0051982D01*
X0165961Y0051784D02*
X0168229Y0051784D01*
X0168031Y0051585D02*
X0166160Y0051585D01*
X0166358Y0051387D02*
X0167832Y0051387D01*
X0167633Y0051188D02*
X0166557Y0051188D01*
X0166755Y0050990D02*
X0167435Y0050990D01*
X0167236Y0050791D02*
X0166954Y0050791D01*
X0167095Y0050650D02*
X0169995Y0053550D01*
X0169995Y0055800D01*
X0164195Y0055800D01*
X0164195Y0053550D01*
X0167095Y0050650D01*
X0169156Y0050990D02*
X0169995Y0050990D01*
X0169995Y0051188D02*
X0169362Y0051188D01*
X0169567Y0051387D02*
X0169995Y0051387D01*
X0169995Y0051585D02*
X0169773Y0051585D01*
X0169978Y0051784D02*
X0169995Y0051784D01*
X0169222Y0052776D02*
X0164969Y0052776D01*
X0164770Y0052975D02*
X0169420Y0052975D01*
X0169619Y0053173D02*
X0164572Y0053173D01*
X0164373Y0053372D02*
X0169817Y0053372D01*
X0169995Y0053570D02*
X0164195Y0053570D01*
X0164195Y0053769D02*
X0169995Y0053769D01*
X0169995Y0053968D02*
X0164195Y0053968D01*
X0164195Y0054166D02*
X0169995Y0054166D01*
X0169995Y0054365D02*
X0164195Y0054365D01*
X0164195Y0054563D02*
X0169995Y0054563D01*
X0169995Y0054762D02*
X0164195Y0054762D01*
X0164195Y0054960D02*
X0169995Y0054960D01*
X0169995Y0055159D02*
X0164195Y0055159D01*
X0164195Y0055357D02*
X0169995Y0055357D01*
X0169995Y0055556D02*
X0164195Y0055556D01*
X0164195Y0055754D02*
X0169995Y0055754D01*
X0159995Y0055754D02*
X0154195Y0055754D01*
X0154195Y0055800D02*
X0159995Y0055800D01*
X0159995Y0053550D01*
X0157095Y0050650D01*
X0154195Y0053550D01*
X0154195Y0055800D01*
X0154195Y0055556D02*
X0159995Y0055556D01*
X0159995Y0055357D02*
X0154195Y0055357D01*
X0154195Y0055159D02*
X0159995Y0055159D01*
X0159995Y0054960D02*
X0154195Y0054960D01*
X0154195Y0054762D02*
X0159995Y0054762D01*
X0159995Y0054563D02*
X0154195Y0054563D01*
X0154195Y0054365D02*
X0159995Y0054365D01*
X0159995Y0054166D02*
X0154195Y0054166D01*
X0154195Y0053968D02*
X0159995Y0053968D01*
X0159995Y0053769D02*
X0154195Y0053769D01*
X0154195Y0053570D02*
X0159995Y0053570D01*
X0159817Y0053372D02*
X0154373Y0053372D01*
X0154572Y0053173D02*
X0159619Y0053173D01*
X0159420Y0052975D02*
X0154770Y0052975D01*
X0154969Y0052776D02*
X0159222Y0052776D01*
X0159023Y0052578D02*
X0155167Y0052578D01*
X0155366Y0052379D02*
X0158825Y0052379D01*
X0158626Y0052181D02*
X0155564Y0052181D01*
X0155763Y0051982D02*
X0158428Y0051982D01*
X0158229Y0051784D02*
X0155961Y0051784D01*
X0156160Y0051585D02*
X0158031Y0051585D01*
X0157832Y0051387D02*
X0156358Y0051387D01*
X0156557Y0051188D02*
X0157633Y0051188D01*
X0157435Y0050990D02*
X0156755Y0050990D01*
X0156954Y0050791D02*
X0157236Y0050791D01*
X0158128Y0049997D02*
X0159995Y0049997D01*
X0159995Y0049799D02*
X0157922Y0049799D01*
X0157717Y0049600D02*
X0159995Y0049600D01*
X0159995Y0049402D02*
X0157511Y0049402D01*
X0157306Y0049203D02*
X0159995Y0049203D01*
X0159995Y0049005D02*
X0157100Y0049005D01*
X0157095Y0049000D02*
X0159995Y0051800D01*
X0159995Y0046800D01*
X0154195Y0046800D01*
X0154195Y0051800D01*
X0157095Y0049000D01*
X0157090Y0049005D02*
X0154195Y0049005D01*
X0154195Y0049203D02*
X0156885Y0049203D01*
X0156679Y0049402D02*
X0154195Y0049402D01*
X0154195Y0049600D02*
X0156473Y0049600D01*
X0156268Y0049799D02*
X0154195Y0049799D01*
X0154195Y0049997D02*
X0156062Y0049997D01*
X0155857Y0050196D02*
X0154195Y0050196D01*
X0154195Y0050394D02*
X0155651Y0050394D01*
X0155445Y0050593D02*
X0154195Y0050593D01*
X0154195Y0050791D02*
X0155240Y0050791D01*
X0155034Y0050990D02*
X0154195Y0050990D01*
X0154195Y0051188D02*
X0154829Y0051188D01*
X0154623Y0051387D02*
X0154195Y0051387D01*
X0154195Y0051585D02*
X0154417Y0051585D01*
X0154212Y0051784D02*
X0154195Y0051784D01*
X0154195Y0048806D02*
X0159995Y0048806D01*
X0159995Y0048608D02*
X0154195Y0048608D01*
X0154195Y0048409D02*
X0159995Y0048409D01*
X0159995Y0048211D02*
X0154195Y0048211D01*
X0154195Y0048012D02*
X0159995Y0048012D01*
X0159995Y0047814D02*
X0154195Y0047814D01*
X0154195Y0047615D02*
X0159995Y0047615D01*
X0159995Y0047417D02*
X0154195Y0047417D01*
X0154195Y0047218D02*
X0159995Y0047218D01*
X0159995Y0047020D02*
X0154195Y0047020D01*
X0154195Y0046821D02*
X0159995Y0046821D01*
X0159995Y0050196D02*
X0158334Y0050196D01*
X0158539Y0050394D02*
X0159995Y0050394D01*
X0159995Y0050593D02*
X0158745Y0050593D01*
X0158950Y0050791D02*
X0159995Y0050791D01*
X0159995Y0050990D02*
X0159156Y0050990D01*
X0159362Y0051188D02*
X0159995Y0051188D01*
X0159995Y0051387D02*
X0159567Y0051387D01*
X0159773Y0051585D02*
X0159995Y0051585D01*
X0159978Y0051784D02*
X0159995Y0051784D01*
X0149995Y0051784D02*
X0149978Y0051784D01*
X0149995Y0051800D02*
X0149995Y0046800D01*
X0144195Y0046800D01*
X0144195Y0051800D01*
X0147095Y0049000D01*
X0149995Y0051800D01*
X0149995Y0051585D02*
X0149773Y0051585D01*
X0149567Y0051387D02*
X0149995Y0051387D01*
X0149995Y0051188D02*
X0149362Y0051188D01*
X0149156Y0050990D02*
X0149995Y0050990D01*
X0149995Y0050791D02*
X0148950Y0050791D01*
X0148745Y0050593D02*
X0149995Y0050593D01*
X0149995Y0050394D02*
X0148539Y0050394D01*
X0148334Y0050196D02*
X0149995Y0050196D01*
X0149995Y0049997D02*
X0148128Y0049997D01*
X0147922Y0049799D02*
X0149995Y0049799D01*
X0149995Y0049600D02*
X0147717Y0049600D01*
X0147511Y0049402D02*
X0149995Y0049402D01*
X0149995Y0049203D02*
X0147306Y0049203D01*
X0147100Y0049005D02*
X0149995Y0049005D01*
X0149995Y0048806D02*
X0144195Y0048806D01*
X0144195Y0048608D02*
X0149995Y0048608D01*
X0149995Y0048409D02*
X0144195Y0048409D01*
X0144195Y0048211D02*
X0149995Y0048211D01*
X0149995Y0048012D02*
X0144195Y0048012D01*
X0144195Y0047814D02*
X0149995Y0047814D01*
X0149995Y0047615D02*
X0144195Y0047615D01*
X0144195Y0047417D02*
X0149995Y0047417D01*
X0149995Y0047218D02*
X0144195Y0047218D01*
X0144195Y0047020D02*
X0149995Y0047020D01*
X0149995Y0046821D02*
X0144195Y0046821D01*
X0144195Y0049005D02*
X0147090Y0049005D01*
X0146885Y0049203D02*
X0144195Y0049203D01*
X0144195Y0049402D02*
X0146679Y0049402D01*
X0146473Y0049600D02*
X0144195Y0049600D01*
X0144195Y0049799D02*
X0146268Y0049799D01*
X0146062Y0049997D02*
X0144195Y0049997D01*
X0144195Y0050196D02*
X0145857Y0050196D01*
X0145651Y0050394D02*
X0144195Y0050394D01*
X0144195Y0050593D02*
X0145445Y0050593D01*
X0145240Y0050791D02*
X0144195Y0050791D01*
X0144195Y0050990D02*
X0145034Y0050990D01*
X0144829Y0051188D02*
X0144195Y0051188D01*
X0144195Y0051387D02*
X0144623Y0051387D01*
X0144417Y0051585D02*
X0144195Y0051585D01*
X0144195Y0051784D02*
X0144212Y0051784D01*
X0145167Y0052578D02*
X0149023Y0052578D01*
X0149222Y0052776D02*
X0144969Y0052776D01*
X0144770Y0052975D02*
X0149420Y0052975D01*
X0149619Y0053173D02*
X0144572Y0053173D01*
X0144373Y0053372D02*
X0149817Y0053372D01*
X0149995Y0053550D02*
X0149995Y0055800D01*
X0144195Y0055800D01*
X0144195Y0053550D01*
X0147095Y0050650D01*
X0149995Y0053550D01*
X0149995Y0053570D02*
X0144195Y0053570D01*
X0144195Y0053769D02*
X0149995Y0053769D01*
X0149995Y0053968D02*
X0144195Y0053968D01*
X0144195Y0054166D02*
X0149995Y0054166D01*
X0149995Y0054365D02*
X0144195Y0054365D01*
X0144195Y0054563D02*
X0149995Y0054563D01*
X0149995Y0054762D02*
X0144195Y0054762D01*
X0144195Y0054960D02*
X0149995Y0054960D01*
X0149995Y0055159D02*
X0144195Y0055159D01*
X0144195Y0055357D02*
X0149995Y0055357D01*
X0149995Y0055556D02*
X0144195Y0055556D01*
X0144195Y0055754D02*
X0149995Y0055754D01*
X0148825Y0052379D02*
X0145366Y0052379D01*
X0145564Y0052181D02*
X0148626Y0052181D01*
X0148428Y0051982D02*
X0145763Y0051982D01*
X0145961Y0051784D02*
X0148229Y0051784D01*
X0148031Y0051585D02*
X0146160Y0051585D01*
X0146358Y0051387D02*
X0147832Y0051387D01*
X0147633Y0051188D02*
X0146557Y0051188D01*
X0146755Y0050990D02*
X0147435Y0050990D01*
X0147236Y0050791D02*
X0146954Y0050791D01*
X0139995Y0050791D02*
X0138950Y0050791D01*
X0138745Y0050593D02*
X0139995Y0050593D01*
X0139995Y0050394D02*
X0138539Y0050394D01*
X0138334Y0050196D02*
X0139995Y0050196D01*
X0139995Y0049997D02*
X0138128Y0049997D01*
X0137922Y0049799D02*
X0139995Y0049799D01*
X0139995Y0049600D02*
X0137717Y0049600D01*
X0137511Y0049402D02*
X0139995Y0049402D01*
X0139995Y0049203D02*
X0137306Y0049203D01*
X0137100Y0049005D02*
X0139995Y0049005D01*
X0139995Y0048806D02*
X0134195Y0048806D01*
X0134195Y0048608D02*
X0139995Y0048608D01*
X0139995Y0048409D02*
X0134195Y0048409D01*
X0134195Y0048211D02*
X0139995Y0048211D01*
X0139995Y0048012D02*
X0134195Y0048012D01*
X0134195Y0047814D02*
X0139995Y0047814D01*
X0139995Y0047615D02*
X0134195Y0047615D01*
X0134195Y0047417D02*
X0139995Y0047417D01*
X0139995Y0047218D02*
X0134195Y0047218D01*
X0134195Y0047020D02*
X0139995Y0047020D01*
X0139995Y0046821D02*
X0134195Y0046821D01*
X0134195Y0046800D02*
X0134195Y0051800D01*
X0137095Y0049000D01*
X0139995Y0051800D01*
X0139995Y0046800D01*
X0134195Y0046800D01*
X0134195Y0049005D02*
X0137090Y0049005D01*
X0136885Y0049203D02*
X0134195Y0049203D01*
X0134195Y0049402D02*
X0136679Y0049402D01*
X0136473Y0049600D02*
X0134195Y0049600D01*
X0134195Y0049799D02*
X0136268Y0049799D01*
X0136062Y0049997D02*
X0134195Y0049997D01*
X0134195Y0050196D02*
X0135857Y0050196D01*
X0135651Y0050394D02*
X0134195Y0050394D01*
X0134195Y0050593D02*
X0135445Y0050593D01*
X0135240Y0050791D02*
X0134195Y0050791D01*
X0134195Y0050990D02*
X0135034Y0050990D01*
X0134829Y0051188D02*
X0134195Y0051188D01*
X0134195Y0051387D02*
X0134623Y0051387D01*
X0134417Y0051585D02*
X0134195Y0051585D01*
X0134195Y0051784D02*
X0134212Y0051784D01*
X0135167Y0052578D02*
X0139023Y0052578D01*
X0139222Y0052776D02*
X0134969Y0052776D01*
X0134770Y0052975D02*
X0139420Y0052975D01*
X0139619Y0053173D02*
X0134572Y0053173D01*
X0134373Y0053372D02*
X0139817Y0053372D01*
X0139995Y0053550D02*
X0137095Y0050650D01*
X0134195Y0053550D01*
X0134195Y0055800D01*
X0139995Y0055800D01*
X0139995Y0053550D01*
X0139995Y0053570D02*
X0134195Y0053570D01*
X0134195Y0053769D02*
X0139995Y0053769D01*
X0139995Y0053968D02*
X0134195Y0053968D01*
X0134195Y0054166D02*
X0139995Y0054166D01*
X0139995Y0054365D02*
X0134195Y0054365D01*
X0134195Y0054563D02*
X0139995Y0054563D01*
X0139995Y0054762D02*
X0134195Y0054762D01*
X0134195Y0054960D02*
X0139995Y0054960D01*
X0139995Y0055159D02*
X0134195Y0055159D01*
X0134195Y0055357D02*
X0139995Y0055357D01*
X0139995Y0055556D02*
X0134195Y0055556D01*
X0134195Y0055754D02*
X0139995Y0055754D01*
X0138825Y0052379D02*
X0135366Y0052379D01*
X0135564Y0052181D02*
X0138626Y0052181D01*
X0138428Y0051982D02*
X0135763Y0051982D01*
X0135961Y0051784D02*
X0138229Y0051784D01*
X0138031Y0051585D02*
X0136160Y0051585D01*
X0136358Y0051387D02*
X0137832Y0051387D01*
X0137633Y0051188D02*
X0136557Y0051188D01*
X0136755Y0050990D02*
X0137435Y0050990D01*
X0137236Y0050791D02*
X0136954Y0050791D01*
X0139156Y0050990D02*
X0139995Y0050990D01*
X0139995Y0051188D02*
X0139362Y0051188D01*
X0139567Y0051387D02*
X0139995Y0051387D01*
X0139995Y0051585D02*
X0139773Y0051585D01*
X0139978Y0051784D02*
X0139995Y0051784D01*
X0129995Y0051784D02*
X0129978Y0051784D01*
X0129995Y0051800D02*
X0129995Y0046800D01*
X0124195Y0046800D01*
X0124195Y0051800D01*
X0127095Y0049000D01*
X0129995Y0051800D01*
X0129995Y0051585D02*
X0129773Y0051585D01*
X0129567Y0051387D02*
X0129995Y0051387D01*
X0129995Y0051188D02*
X0129362Y0051188D01*
X0129156Y0050990D02*
X0129995Y0050990D01*
X0129995Y0050791D02*
X0128950Y0050791D01*
X0128745Y0050593D02*
X0129995Y0050593D01*
X0129995Y0050394D02*
X0128539Y0050394D01*
X0128334Y0050196D02*
X0129995Y0050196D01*
X0129995Y0049997D02*
X0128128Y0049997D01*
X0127922Y0049799D02*
X0129995Y0049799D01*
X0129995Y0049600D02*
X0127717Y0049600D01*
X0127511Y0049402D02*
X0129995Y0049402D01*
X0129995Y0049203D02*
X0127306Y0049203D01*
X0127100Y0049005D02*
X0129995Y0049005D01*
X0129995Y0048806D02*
X0124195Y0048806D01*
X0124195Y0048608D02*
X0129995Y0048608D01*
X0129995Y0048409D02*
X0124195Y0048409D01*
X0124195Y0048211D02*
X0129995Y0048211D01*
X0129995Y0048012D02*
X0124195Y0048012D01*
X0124195Y0047814D02*
X0129995Y0047814D01*
X0129995Y0047615D02*
X0124195Y0047615D01*
X0124195Y0047417D02*
X0129995Y0047417D01*
X0129995Y0047218D02*
X0124195Y0047218D01*
X0124195Y0047020D02*
X0129995Y0047020D01*
X0129995Y0046821D02*
X0124195Y0046821D01*
X0124195Y0049005D02*
X0127090Y0049005D01*
X0126885Y0049203D02*
X0124195Y0049203D01*
X0124195Y0049402D02*
X0126679Y0049402D01*
X0126473Y0049600D02*
X0124195Y0049600D01*
X0124195Y0049799D02*
X0126268Y0049799D01*
X0126062Y0049997D02*
X0124195Y0049997D01*
X0124195Y0050196D02*
X0125857Y0050196D01*
X0125651Y0050394D02*
X0124195Y0050394D01*
X0124195Y0050593D02*
X0125445Y0050593D01*
X0125240Y0050791D02*
X0124195Y0050791D01*
X0124195Y0050990D02*
X0125034Y0050990D01*
X0124829Y0051188D02*
X0124195Y0051188D01*
X0124195Y0051387D02*
X0124623Y0051387D01*
X0124417Y0051585D02*
X0124195Y0051585D01*
X0124195Y0051784D02*
X0124212Y0051784D01*
X0125167Y0052578D02*
X0129023Y0052578D01*
X0129222Y0052776D02*
X0124969Y0052776D01*
X0124770Y0052975D02*
X0129420Y0052975D01*
X0129619Y0053173D02*
X0124572Y0053173D01*
X0124373Y0053372D02*
X0129817Y0053372D01*
X0129995Y0053550D02*
X0129995Y0055800D01*
X0124195Y0055800D01*
X0124195Y0053550D01*
X0127095Y0050650D01*
X0129995Y0053550D01*
X0129995Y0053570D02*
X0124195Y0053570D01*
X0124195Y0053769D02*
X0129995Y0053769D01*
X0129995Y0053968D02*
X0124195Y0053968D01*
X0124195Y0054166D02*
X0129995Y0054166D01*
X0129995Y0054365D02*
X0124195Y0054365D01*
X0124195Y0054563D02*
X0129995Y0054563D01*
X0129995Y0054762D02*
X0124195Y0054762D01*
X0124195Y0054960D02*
X0129995Y0054960D01*
X0129995Y0055159D02*
X0124195Y0055159D01*
X0124195Y0055357D02*
X0129995Y0055357D01*
X0129995Y0055556D02*
X0124195Y0055556D01*
X0124195Y0055754D02*
X0129995Y0055754D01*
X0128825Y0052379D02*
X0125366Y0052379D01*
X0125564Y0052181D02*
X0128626Y0052181D01*
X0128428Y0051982D02*
X0125763Y0051982D01*
X0125961Y0051784D02*
X0128229Y0051784D01*
X0128031Y0051585D02*
X0126160Y0051585D01*
X0126358Y0051387D02*
X0127832Y0051387D01*
X0127633Y0051188D02*
X0126557Y0051188D01*
X0126755Y0050990D02*
X0127435Y0050990D01*
X0127236Y0050791D02*
X0126954Y0050791D01*
X0119995Y0050791D02*
X0118950Y0050791D01*
X0118745Y0050593D02*
X0119995Y0050593D01*
X0119995Y0050394D02*
X0118539Y0050394D01*
X0118334Y0050196D02*
X0119995Y0050196D01*
X0119995Y0049997D02*
X0118128Y0049997D01*
X0117922Y0049799D02*
X0119995Y0049799D01*
X0119995Y0049600D02*
X0117717Y0049600D01*
X0117511Y0049402D02*
X0119995Y0049402D01*
X0119995Y0049203D02*
X0117306Y0049203D01*
X0117100Y0049005D02*
X0119995Y0049005D01*
X0119995Y0048806D02*
X0114195Y0048806D01*
X0114195Y0048608D02*
X0119995Y0048608D01*
X0119995Y0048409D02*
X0114195Y0048409D01*
X0114195Y0048211D02*
X0119995Y0048211D01*
X0119995Y0048012D02*
X0114195Y0048012D01*
X0114195Y0047814D02*
X0119995Y0047814D01*
X0119995Y0047615D02*
X0114195Y0047615D01*
X0114195Y0047417D02*
X0119995Y0047417D01*
X0119995Y0047218D02*
X0114195Y0047218D01*
X0114195Y0047020D02*
X0119995Y0047020D01*
X0119995Y0046821D02*
X0114195Y0046821D01*
X0114195Y0046800D02*
X0114195Y0051800D01*
X0117095Y0049000D01*
X0119995Y0051800D01*
X0119995Y0046800D01*
X0114195Y0046800D01*
X0114195Y0049005D02*
X0117090Y0049005D01*
X0116885Y0049203D02*
X0114195Y0049203D01*
X0114195Y0049402D02*
X0116679Y0049402D01*
X0116473Y0049600D02*
X0114195Y0049600D01*
X0114195Y0049799D02*
X0116268Y0049799D01*
X0116062Y0049997D02*
X0114195Y0049997D01*
X0114195Y0050196D02*
X0115857Y0050196D01*
X0115651Y0050394D02*
X0114195Y0050394D01*
X0114195Y0050593D02*
X0115445Y0050593D01*
X0115240Y0050791D02*
X0114195Y0050791D01*
X0114195Y0050990D02*
X0115034Y0050990D01*
X0114829Y0051188D02*
X0114195Y0051188D01*
X0114195Y0051387D02*
X0114623Y0051387D01*
X0114417Y0051585D02*
X0114195Y0051585D01*
X0114195Y0051784D02*
X0114212Y0051784D01*
X0115167Y0052578D02*
X0119023Y0052578D01*
X0119222Y0052776D02*
X0114969Y0052776D01*
X0114770Y0052975D02*
X0119420Y0052975D01*
X0119619Y0053173D02*
X0114572Y0053173D01*
X0114373Y0053372D02*
X0119817Y0053372D01*
X0119995Y0053550D02*
X0119995Y0055800D01*
X0114195Y0055800D01*
X0114195Y0053550D01*
X0117095Y0050650D01*
X0119995Y0053550D01*
X0119995Y0053570D02*
X0114195Y0053570D01*
X0114195Y0053769D02*
X0119995Y0053769D01*
X0119995Y0053968D02*
X0114195Y0053968D01*
X0114195Y0054166D02*
X0119995Y0054166D01*
X0119995Y0054365D02*
X0114195Y0054365D01*
X0114195Y0054563D02*
X0119995Y0054563D01*
X0119995Y0054762D02*
X0114195Y0054762D01*
X0114195Y0054960D02*
X0119995Y0054960D01*
X0119995Y0055159D02*
X0114195Y0055159D01*
X0114195Y0055357D02*
X0119995Y0055357D01*
X0119995Y0055556D02*
X0114195Y0055556D01*
X0114195Y0055754D02*
X0119995Y0055754D01*
X0118825Y0052379D02*
X0115366Y0052379D01*
X0115564Y0052181D02*
X0118626Y0052181D01*
X0118428Y0051982D02*
X0115763Y0051982D01*
X0115961Y0051784D02*
X0118229Y0051784D01*
X0118031Y0051585D02*
X0116160Y0051585D01*
X0116358Y0051387D02*
X0117832Y0051387D01*
X0117633Y0051188D02*
X0116557Y0051188D01*
X0116755Y0050990D02*
X0117435Y0050990D01*
X0117236Y0050791D02*
X0116954Y0050791D01*
X0119156Y0050990D02*
X0119995Y0050990D01*
X0119995Y0051188D02*
X0119362Y0051188D01*
X0119567Y0051387D02*
X0119995Y0051387D01*
X0119995Y0051585D02*
X0119773Y0051585D01*
X0119978Y0051784D02*
X0119995Y0051784D01*
X0109995Y0051784D02*
X0109978Y0051784D01*
X0109995Y0051800D02*
X0109995Y0046800D01*
X0104195Y0046800D01*
X0104195Y0051800D01*
X0107095Y0049000D01*
X0109995Y0051800D01*
X0109995Y0051585D02*
X0109773Y0051585D01*
X0109567Y0051387D02*
X0109995Y0051387D01*
X0109995Y0051188D02*
X0109362Y0051188D01*
X0109156Y0050990D02*
X0109995Y0050990D01*
X0109995Y0050791D02*
X0108950Y0050791D01*
X0108745Y0050593D02*
X0109995Y0050593D01*
X0109995Y0050394D02*
X0108539Y0050394D01*
X0108334Y0050196D02*
X0109995Y0050196D01*
X0109995Y0049997D02*
X0108128Y0049997D01*
X0107922Y0049799D02*
X0109995Y0049799D01*
X0109995Y0049600D02*
X0107717Y0049600D01*
X0107511Y0049402D02*
X0109995Y0049402D01*
X0109995Y0049203D02*
X0107306Y0049203D01*
X0107100Y0049005D02*
X0109995Y0049005D01*
X0109995Y0048806D02*
X0104195Y0048806D01*
X0104195Y0048608D02*
X0109995Y0048608D01*
X0109995Y0048409D02*
X0104195Y0048409D01*
X0104195Y0048211D02*
X0109995Y0048211D01*
X0109995Y0048012D02*
X0104195Y0048012D01*
X0104195Y0047814D02*
X0109995Y0047814D01*
X0109995Y0047615D02*
X0104195Y0047615D01*
X0104195Y0047417D02*
X0109995Y0047417D01*
X0109995Y0047218D02*
X0104195Y0047218D01*
X0104195Y0047020D02*
X0109995Y0047020D01*
X0109995Y0046821D02*
X0104195Y0046821D01*
X0104195Y0049005D02*
X0107090Y0049005D01*
X0106885Y0049203D02*
X0104195Y0049203D01*
X0104195Y0049402D02*
X0106679Y0049402D01*
X0106473Y0049600D02*
X0104195Y0049600D01*
X0104195Y0049799D02*
X0106268Y0049799D01*
X0106062Y0049997D02*
X0104195Y0049997D01*
X0104195Y0050196D02*
X0105857Y0050196D01*
X0105651Y0050394D02*
X0104195Y0050394D01*
X0104195Y0050593D02*
X0105445Y0050593D01*
X0105240Y0050791D02*
X0104195Y0050791D01*
X0104195Y0050990D02*
X0105034Y0050990D01*
X0104829Y0051188D02*
X0104195Y0051188D01*
X0104195Y0051387D02*
X0104623Y0051387D01*
X0104417Y0051585D02*
X0104195Y0051585D01*
X0104195Y0051784D02*
X0104212Y0051784D01*
X0105167Y0052578D02*
X0109023Y0052578D01*
X0109222Y0052776D02*
X0104969Y0052776D01*
X0104770Y0052975D02*
X0109420Y0052975D01*
X0109619Y0053173D02*
X0104572Y0053173D01*
X0104373Y0053372D02*
X0109817Y0053372D01*
X0109995Y0053550D02*
X0109995Y0055800D01*
X0104195Y0055800D01*
X0104195Y0053550D01*
X0107095Y0050650D01*
X0109995Y0053550D01*
X0109995Y0053570D02*
X0104195Y0053570D01*
X0104195Y0053769D02*
X0109995Y0053769D01*
X0109995Y0053968D02*
X0104195Y0053968D01*
X0104195Y0054166D02*
X0109995Y0054166D01*
X0109995Y0054365D02*
X0104195Y0054365D01*
X0104195Y0054563D02*
X0109995Y0054563D01*
X0109995Y0054762D02*
X0104195Y0054762D01*
X0104195Y0054960D02*
X0109995Y0054960D01*
X0109995Y0055159D02*
X0104195Y0055159D01*
X0104195Y0055357D02*
X0109995Y0055357D01*
X0109995Y0055556D02*
X0104195Y0055556D01*
X0104195Y0055754D02*
X0109995Y0055754D01*
X0108825Y0052379D02*
X0105366Y0052379D01*
X0105564Y0052181D02*
X0108626Y0052181D01*
X0108428Y0051982D02*
X0105763Y0051982D01*
X0105961Y0051784D02*
X0108229Y0051784D01*
X0108031Y0051585D02*
X0106160Y0051585D01*
X0106358Y0051387D02*
X0107832Y0051387D01*
X0107633Y0051188D02*
X0106557Y0051188D01*
X0106755Y0050990D02*
X0107435Y0050990D01*
X0107236Y0050791D02*
X0106954Y0050791D01*
D16*
X0187095Y0108300D03*
X0187095Y0114300D03*
D17*
X0187095Y0111300D03*
D18*
X0187095Y0114300D02*
X0187095Y0121300D01*
X0197095Y0121300D02*
X0197095Y0115300D01*
X0207095Y0115300D02*
X0207095Y0121300D01*
X0217095Y0121300D02*
X0217095Y0115300D01*
X0177095Y0115300D02*
X0177095Y0121300D01*
X0167095Y0121300D02*
X0167095Y0115300D01*
X0157095Y0115300D02*
X0157095Y0121300D01*
X0147095Y0121300D02*
X0147095Y0115300D01*
X0137095Y0115300D02*
X0137095Y0121300D01*
X0137095Y0047300D02*
X0137095Y0041300D01*
X0147095Y0041300D02*
X0147095Y0047300D01*
X0157095Y0047300D02*
X0157095Y0041300D01*
X0167095Y0041300D02*
X0167095Y0047300D01*
X0177095Y0047300D02*
X0177095Y0041300D01*
X0187095Y0041300D02*
X0187095Y0047300D01*
X0197095Y0047300D02*
X0197095Y0041300D01*
X0207095Y0041300D02*
X0207095Y0047300D01*
X0127095Y0047300D02*
X0127095Y0041300D01*
X0117095Y0041300D02*
X0117095Y0047300D01*
X0107095Y0047300D02*
X0107095Y0041300D01*
D19*
X0102901Y0041088D02*
X0097395Y0041088D01*
X0097395Y0041000D02*
X0097395Y0041600D01*
X0096795Y0041600D01*
X0096795Y0041000D01*
X0092901Y0041000D01*
X0092901Y0040970D01*
X0093005Y0040318D01*
X0093209Y0039690D01*
X0093508Y0039102D01*
X0093896Y0038568D01*
X0094363Y0038101D01*
X0094897Y0037713D01*
X0095485Y0037414D01*
X0095566Y0037387D01*
X0088608Y0037387D01*
X0089471Y0037745D01*
X0090650Y0038924D01*
X0091289Y0040466D01*
X0091289Y0042134D01*
X0090650Y0043676D01*
X0089471Y0044855D01*
X0087929Y0045494D01*
X0086261Y0045494D01*
X0084720Y0044855D01*
X0083540Y0043676D01*
X0082901Y0042134D01*
X0082901Y0040466D01*
X0083540Y0038924D01*
X0084720Y0037745D01*
X0085582Y0037387D01*
X0078608Y0037387D01*
X0079471Y0037745D01*
X0080650Y0038924D01*
X0081289Y0040466D01*
X0081289Y0042134D01*
X0080650Y0043676D01*
X0079471Y0044855D01*
X0077929Y0045494D01*
X0076261Y0045494D01*
X0074720Y0044855D01*
X0073540Y0043676D01*
X0072901Y0042134D01*
X0072901Y0040466D01*
X0073540Y0038924D01*
X0074720Y0037745D01*
X0075582Y0037387D01*
X0068608Y0037387D01*
X0069471Y0037745D01*
X0070650Y0038924D01*
X0071289Y0040466D01*
X0071289Y0042134D01*
X0070650Y0043676D01*
X0069471Y0044855D01*
X0068094Y0045426D01*
X0068094Y0045449D01*
X0068089Y0045454D01*
X0068089Y0045462D01*
X0067802Y0045748D01*
X0060477Y0053266D01*
X0060834Y0053266D01*
X0061879Y0054311D01*
X0061879Y0055789D01*
X0060834Y0056834D01*
X0059716Y0056834D01*
X0059507Y0057044D01*
X0049007Y0057044D01*
X0046589Y0059462D01*
X0046589Y0063138D01*
X0049257Y0065806D01*
X0054934Y0065806D01*
X0056601Y0064138D01*
X0056601Y0061138D01*
X0058184Y0059556D01*
X0061757Y0059556D01*
X0064257Y0062056D01*
X0221684Y0062056D01*
X0224561Y0059179D01*
X0224561Y0058061D01*
X0225606Y0057016D01*
X0227084Y0057016D01*
X0228129Y0058061D01*
X0228129Y0059539D01*
X0227084Y0060584D01*
X0225966Y0060584D01*
X0223494Y0063056D01*
X0224816Y0063056D01*
X0225856Y0062016D01*
X0227334Y0062016D01*
X0228379Y0063061D01*
X0228379Y0064539D01*
X0227334Y0065584D01*
X0225856Y0065584D01*
X0225316Y0065044D01*
X0223744Y0065044D01*
X0233089Y0074388D01*
X0233089Y0077770D01*
X0233879Y0078561D01*
X0233879Y0080039D01*
X0232834Y0081084D01*
X0231356Y0081084D01*
X0230311Y0080039D01*
X0230311Y0078561D01*
X0231101Y0077770D01*
X0231101Y0075212D01*
X0221934Y0066044D01*
X0059007Y0066044D01*
X0056257Y0068794D01*
X0047934Y0068794D01*
X0047351Y0068212D01*
X0043601Y0064462D01*
X0043601Y0057888D01*
X0044184Y0057306D01*
X0047684Y0053806D01*
X0048806Y0053806D01*
X0047454Y0053246D01*
X0045149Y0050941D01*
X0043901Y0047930D01*
X0043901Y0044670D01*
X0045149Y0041659D01*
X0047454Y0039354D01*
X0050465Y0038106D01*
X0053725Y0038106D01*
X0056736Y0039354D01*
X0059041Y0041659D01*
X0060289Y0044670D01*
X0060289Y0047930D01*
X0059041Y0050941D01*
X0056736Y0053246D01*
X0055384Y0053806D01*
X0057176Y0053806D01*
X0065559Y0045203D01*
X0064720Y0044855D01*
X0063540Y0043676D01*
X0062901Y0042134D01*
X0062901Y0040466D01*
X0063540Y0038924D01*
X0064720Y0037745D01*
X0065582Y0037387D01*
X0052095Y0037387D01*
X0050701Y0037497D01*
X0048049Y0038359D01*
X0045793Y0039998D01*
X0044154Y0042254D01*
X0043292Y0044906D01*
X0043183Y0046300D01*
X0043183Y0070057D01*
X0043811Y0069429D01*
X0043811Y0068311D01*
X0044856Y0067266D01*
X0046334Y0067266D01*
X0047379Y0068311D01*
X0047379Y0069789D01*
X0046334Y0070834D01*
X0045216Y0070834D01*
X0044339Y0071712D01*
X0044339Y0090651D01*
X0044684Y0090306D01*
X0056007Y0090306D01*
X0056589Y0090888D01*
X0057839Y0092138D01*
X0057839Y0095138D01*
X0059007Y0096306D01*
X0218257Y0096306D01*
X0218345Y0096394D01*
X0218636Y0096685D01*
X0218637Y0096686D01*
X0226966Y0105016D01*
X0228084Y0105016D01*
X0229129Y0106061D01*
X0229129Y0107539D01*
X0228084Y0108584D01*
X0226606Y0108584D01*
X0225561Y0107539D01*
X0225561Y0106421D01*
X0217521Y0098382D01*
X0217434Y0098294D01*
X0063517Y0098294D01*
X0063989Y0098766D01*
X0079380Y0114156D01*
X0122630Y0114156D01*
X0123739Y0115266D01*
X0125779Y0117306D01*
X0126261Y0117106D01*
X0127929Y0117106D01*
X0129471Y0117745D01*
X0130650Y0118924D01*
X0131289Y0120466D01*
X0131289Y0122134D01*
X0130650Y0123676D01*
X0129471Y0124855D01*
X0128608Y0125213D01*
X0135582Y0125213D01*
X0134720Y0124855D01*
X0133540Y0123676D01*
X0132901Y0122134D01*
X0132901Y0120466D01*
X0132995Y0120240D01*
X0132995Y0105051D01*
X0133347Y0104700D01*
X0220844Y0104700D01*
X0221195Y0105051D01*
X0221195Y0106306D01*
X0222257Y0106306D01*
X0222839Y0106888D01*
X0225507Y0109556D01*
X0228184Y0109556D01*
X0228351Y0109388D01*
X0228934Y0108806D01*
X0233434Y0108806D01*
X0239851Y0102388D01*
X0239851Y0057462D01*
X0237184Y0054794D01*
X0231244Y0054794D01*
X0232507Y0056056D01*
X0233089Y0056638D01*
X0233089Y0057639D01*
X0234357Y0058164D01*
X0235481Y0059288D01*
X0236089Y0060756D01*
X0236089Y0062344D01*
X0235481Y0063812D01*
X0234357Y0064936D01*
X0232890Y0065544D01*
X0231301Y0065544D01*
X0229833Y0064936D01*
X0228709Y0063812D01*
X0228101Y0062344D01*
X0228101Y0060756D01*
X0228709Y0059288D01*
X0229833Y0058164D01*
X0231101Y0057639D01*
X0231101Y0057462D01*
X0221851Y0048212D01*
X0221851Y0047830D01*
X0221061Y0047039D01*
X0221061Y0046740D01*
X0212089Y0055712D01*
X0211507Y0056294D01*
X0211195Y0056294D01*
X0211195Y0057549D01*
X0210844Y0057900D01*
X0103347Y0057900D01*
X0102995Y0057549D01*
X0102995Y0056294D01*
X0100507Y0056294D01*
X0097507Y0059294D01*
X0056507Y0059294D01*
X0055089Y0060712D01*
X0055089Y0062094D01*
X0054481Y0063562D01*
X0053357Y0064686D01*
X0051890Y0065294D01*
X0050301Y0065294D01*
X0048833Y0064686D01*
X0047709Y0063562D01*
X0047101Y0062094D01*
X0047101Y0060506D01*
X0047709Y0059038D01*
X0048833Y0057914D01*
X0050301Y0057306D01*
X0051890Y0057306D01*
X0053357Y0057914D01*
X0054216Y0058773D01*
X0055101Y0057888D01*
X0055684Y0057306D01*
X0096684Y0057306D01*
X0099101Y0054888D01*
X0099684Y0054306D01*
X0102995Y0054306D01*
X0102995Y0042360D01*
X0102901Y0042134D01*
X0102901Y0040466D01*
X0103540Y0038924D01*
X0104720Y0037745D01*
X0105582Y0037387D01*
X0098624Y0037387D01*
X0098705Y0037414D01*
X0099293Y0037713D01*
X0099827Y0038101D01*
X0100294Y0038568D01*
X0100682Y0039102D01*
X0100982Y0039690D01*
X0101186Y0040318D01*
X0101289Y0040970D01*
X0101289Y0041000D01*
X0097395Y0041000D01*
X0097395Y0041600D02*
X0101289Y0041600D01*
X0101289Y0041630D01*
X0101186Y0042282D01*
X0100982Y0042910D01*
X0100682Y0043498D01*
X0100294Y0044032D01*
X0099827Y0044499D01*
X0099293Y0044887D01*
X0098705Y0045186D01*
X0098077Y0045390D01*
X0097425Y0045494D01*
X0097395Y0045494D01*
X0097395Y0041600D01*
X0097395Y0041687D02*
X0096795Y0041687D01*
X0096795Y0041600D02*
X0096795Y0045494D01*
X0096765Y0045494D01*
X0096113Y0045390D01*
X0095485Y0045186D01*
X0094897Y0044887D01*
X0094363Y0044499D01*
X0093896Y0044032D01*
X0093508Y0043498D01*
X0093209Y0042910D01*
X0093005Y0042282D01*
X0092901Y0041630D01*
X0092901Y0041600D01*
X0096795Y0041600D01*
X0096795Y0041088D02*
X0091289Y0041088D01*
X0091289Y0040490D02*
X0092978Y0040490D01*
X0093143Y0039891D02*
X0091051Y0039891D01*
X0090803Y0039293D02*
X0093411Y0039293D01*
X0093805Y0038694D02*
X0090420Y0038694D01*
X0089821Y0038096D02*
X0094371Y0038096D01*
X0095321Y0037497D02*
X0088873Y0037497D01*
X0085318Y0037497D02*
X0078873Y0037497D01*
X0079821Y0038096D02*
X0084369Y0038096D01*
X0083770Y0038694D02*
X0080420Y0038694D01*
X0080803Y0039293D02*
X0083387Y0039293D01*
X0083139Y0039891D02*
X0081051Y0039891D01*
X0081289Y0040490D02*
X0082901Y0040490D01*
X0082901Y0041088D02*
X0081289Y0041088D01*
X0081289Y0041687D02*
X0082901Y0041687D01*
X0082964Y0042285D02*
X0081226Y0042285D01*
X0080978Y0042884D02*
X0083212Y0042884D01*
X0083460Y0043482D02*
X0080730Y0043482D01*
X0080245Y0044081D02*
X0083945Y0044081D01*
X0084544Y0044679D02*
X0079647Y0044679D01*
X0078451Y0045278D02*
X0085739Y0045278D01*
X0088451Y0045278D02*
X0095766Y0045278D01*
X0096795Y0045278D02*
X0097395Y0045278D01*
X0097395Y0044679D02*
X0096795Y0044679D01*
X0096795Y0044081D02*
X0097395Y0044081D01*
X0097395Y0043482D02*
X0096795Y0043482D01*
X0096795Y0042884D02*
X0097395Y0042884D01*
X0097395Y0042285D02*
X0096795Y0042285D01*
X0094611Y0044679D02*
X0089647Y0044679D01*
X0090245Y0044081D02*
X0093945Y0044081D01*
X0093500Y0043482D02*
X0090730Y0043482D01*
X0090978Y0042884D02*
X0093200Y0042884D01*
X0093006Y0042285D02*
X0091226Y0042285D01*
X0091289Y0041687D02*
X0092910Y0041687D01*
X0098424Y0045278D02*
X0102995Y0045278D01*
X0102995Y0045876D02*
X0067678Y0045876D01*
X0067094Y0046475D02*
X0102995Y0046475D01*
X0102995Y0047073D02*
X0066511Y0047073D01*
X0065928Y0047672D02*
X0102995Y0047672D01*
X0102995Y0048270D02*
X0065345Y0048270D01*
X0064762Y0048869D02*
X0102995Y0048869D01*
X0102995Y0049467D02*
X0064179Y0049467D01*
X0063595Y0050066D02*
X0102995Y0050066D01*
X0102995Y0050664D02*
X0063012Y0050664D01*
X0062429Y0051263D02*
X0102995Y0051263D01*
X0102995Y0051861D02*
X0061846Y0051861D01*
X0061263Y0052460D02*
X0102995Y0052460D01*
X0102995Y0053058D02*
X0060680Y0053058D01*
X0061225Y0053657D02*
X0102995Y0053657D01*
X0102995Y0054255D02*
X0061824Y0054255D01*
X0061879Y0054854D02*
X0099136Y0054854D01*
X0098537Y0055452D02*
X0061879Y0055452D01*
X0061618Y0056051D02*
X0097939Y0056051D01*
X0097340Y0056649D02*
X0061019Y0056649D01*
X0060095Y0055050D02*
X0059095Y0056050D01*
X0048595Y0056050D01*
X0045595Y0059050D01*
X0045595Y0063550D01*
X0048845Y0066800D01*
X0055345Y0066800D01*
X0057595Y0064550D01*
X0057595Y0061550D01*
X0058595Y0060550D01*
X0061345Y0060550D01*
X0063845Y0063050D01*
X0222095Y0063050D01*
X0226345Y0058800D01*
X0224561Y0059043D02*
X0097757Y0059043D01*
X0098356Y0058445D02*
X0224561Y0058445D01*
X0224775Y0057846D02*
X0210897Y0057846D01*
X0211195Y0057248D02*
X0225374Y0057248D01*
X0227316Y0057248D02*
X0230888Y0057248D01*
X0230600Y0057846D02*
X0227915Y0057846D01*
X0228129Y0058445D02*
X0229552Y0058445D01*
X0228954Y0059043D02*
X0228129Y0059043D01*
X0228026Y0059642D02*
X0228563Y0059642D01*
X0228315Y0060240D02*
X0227428Y0060240D01*
X0228101Y0060839D02*
X0225711Y0060839D01*
X0225113Y0061437D02*
X0228101Y0061437D01*
X0228101Y0062036D02*
X0227354Y0062036D01*
X0227953Y0062634D02*
X0228222Y0062634D01*
X0228379Y0063233D02*
X0228470Y0063233D01*
X0228379Y0063832D02*
X0228729Y0063832D01*
X0228379Y0064430D02*
X0229327Y0064430D01*
X0230057Y0065029D02*
X0227890Y0065029D01*
X0226595Y0063800D02*
X0226345Y0064050D01*
X0061095Y0064050D01*
X0059595Y0062550D01*
X0058595Y0065050D02*
X0222345Y0065050D01*
X0232095Y0074800D01*
X0232095Y0079300D01*
X0230862Y0080590D02*
X0226211Y0080590D01*
X0226216Y0080584D02*
X0225757Y0081044D01*
X0061625Y0081044D01*
X0060834Y0081834D01*
X0059356Y0081834D01*
X0058311Y0080789D01*
X0058311Y0079311D01*
X0059356Y0078266D01*
X0060834Y0078266D01*
X0061625Y0079056D01*
X0224811Y0079056D01*
X0224811Y0078061D01*
X0225856Y0077016D01*
X0227334Y0077016D01*
X0228379Y0078061D01*
X0228379Y0079539D01*
X0227334Y0080584D01*
X0226216Y0080584D01*
X0225345Y0080050D02*
X0226595Y0078800D01*
X0225345Y0080050D02*
X0060095Y0080050D01*
X0058828Y0078794D02*
X0044339Y0078794D01*
X0044339Y0078196D02*
X0224811Y0078196D01*
X0224811Y0078794D02*
X0061363Y0078794D01*
X0061480Y0081188D02*
X0239851Y0081188D01*
X0239851Y0080590D02*
X0233329Y0080590D01*
X0233879Y0079991D02*
X0239851Y0079991D01*
X0239851Y0079393D02*
X0233879Y0079393D01*
X0233879Y0078794D02*
X0239851Y0078794D01*
X0239851Y0078196D02*
X0233514Y0078196D01*
X0233089Y0077597D02*
X0239851Y0077597D01*
X0239851Y0076999D02*
X0233089Y0076999D01*
X0233089Y0076400D02*
X0239851Y0076400D01*
X0239851Y0075802D02*
X0233089Y0075802D01*
X0233089Y0075203D02*
X0239851Y0075203D01*
X0239851Y0074605D02*
X0233089Y0074605D01*
X0232707Y0074006D02*
X0239851Y0074006D01*
X0239851Y0073408D02*
X0232108Y0073408D01*
X0231510Y0072809D02*
X0239851Y0072809D01*
X0239851Y0072211D02*
X0230911Y0072211D01*
X0230313Y0071612D02*
X0239851Y0071612D01*
X0239851Y0071014D02*
X0229714Y0071014D01*
X0229116Y0070415D02*
X0239851Y0070415D01*
X0239851Y0069817D02*
X0228517Y0069817D01*
X0227919Y0069218D02*
X0239851Y0069218D01*
X0239851Y0068620D02*
X0227320Y0068620D01*
X0226722Y0068021D02*
X0239851Y0068021D01*
X0239851Y0067423D02*
X0226123Y0067423D01*
X0225525Y0066824D02*
X0239851Y0066824D01*
X0239851Y0066226D02*
X0224926Y0066226D01*
X0224327Y0065627D02*
X0239851Y0065627D01*
X0239851Y0065029D02*
X0234133Y0065029D01*
X0234863Y0064430D02*
X0239851Y0064430D01*
X0239851Y0063832D02*
X0235462Y0063832D01*
X0235721Y0063233D02*
X0239851Y0063233D01*
X0239851Y0062634D02*
X0235969Y0062634D01*
X0236089Y0062036D02*
X0239851Y0062036D01*
X0239851Y0061437D02*
X0236089Y0061437D01*
X0236089Y0060839D02*
X0239851Y0060839D01*
X0239851Y0060240D02*
X0235875Y0060240D01*
X0235628Y0059642D02*
X0239851Y0059642D01*
X0239851Y0059043D02*
X0235237Y0059043D01*
X0234638Y0058445D02*
X0239851Y0058445D01*
X0239851Y0057846D02*
X0233590Y0057846D01*
X0233089Y0057248D02*
X0239638Y0057248D01*
X0239039Y0056649D02*
X0233089Y0056649D01*
X0232501Y0056051D02*
X0238441Y0056051D01*
X0237842Y0055452D02*
X0231903Y0055452D01*
X0231304Y0054854D02*
X0237244Y0054854D01*
X0237595Y0053800D02*
X0230345Y0053800D01*
X0224845Y0048300D01*
X0224845Y0045550D01*
X0223595Y0044300D01*
X0222095Y0044300D01*
X0211095Y0055300D01*
X0207095Y0055300D01*
X0211195Y0056649D02*
X0230289Y0056649D01*
X0229691Y0056051D02*
X0211750Y0056051D01*
X0212348Y0055452D02*
X0229092Y0055452D01*
X0228494Y0054854D02*
X0212947Y0054854D01*
X0213545Y0054255D02*
X0227895Y0054255D01*
X0227297Y0053657D02*
X0214144Y0053657D01*
X0214742Y0053058D02*
X0226698Y0053058D01*
X0226100Y0052460D02*
X0215341Y0052460D01*
X0215939Y0051861D02*
X0225501Y0051861D01*
X0224903Y0051263D02*
X0216538Y0051263D01*
X0217136Y0050664D02*
X0224304Y0050664D01*
X0223706Y0050066D02*
X0217735Y0050066D01*
X0218333Y0049467D02*
X0223107Y0049467D01*
X0222509Y0048869D02*
X0218932Y0048869D01*
X0219530Y0048270D02*
X0221910Y0048270D01*
X0221694Y0047672D02*
X0220129Y0047672D01*
X0220727Y0047073D02*
X0221095Y0047073D01*
X0222845Y0047800D02*
X0222845Y0046300D01*
X0222845Y0047800D02*
X0232095Y0057050D01*
X0232095Y0061550D01*
X0225836Y0062036D02*
X0224514Y0062036D01*
X0223916Y0062634D02*
X0225237Y0062634D01*
X0222901Y0060839D02*
X0063039Y0060839D01*
X0062441Y0060240D02*
X0223499Y0060240D01*
X0224098Y0059642D02*
X0061842Y0059642D01*
X0063638Y0061437D02*
X0222302Y0061437D01*
X0221704Y0062036D02*
X0064236Y0062036D01*
X0058595Y0065050D02*
X0055845Y0067800D01*
X0048345Y0067800D01*
X0044595Y0064050D01*
X0044595Y0058300D01*
X0048095Y0054800D01*
X0057595Y0054800D01*
X0067095Y0045050D01*
X0067095Y0041300D01*
X0070978Y0042884D02*
X0073212Y0042884D01*
X0073460Y0043482D02*
X0070730Y0043482D01*
X0070245Y0044081D02*
X0073945Y0044081D01*
X0074544Y0044679D02*
X0069647Y0044679D01*
X0068451Y0045278D02*
X0075739Y0045278D01*
X0072964Y0042285D02*
X0071226Y0042285D01*
X0071289Y0041687D02*
X0072901Y0041687D01*
X0072901Y0041088D02*
X0071289Y0041088D01*
X0071289Y0040490D02*
X0072901Y0040490D01*
X0073139Y0039891D02*
X0071051Y0039891D01*
X0070803Y0039293D02*
X0073387Y0039293D01*
X0073770Y0038694D02*
X0070420Y0038694D01*
X0069821Y0038096D02*
X0074369Y0038096D01*
X0075318Y0037497D02*
X0068873Y0037497D01*
X0065318Y0037497D02*
X0050702Y0037497D01*
X0048859Y0038096D02*
X0064369Y0038096D01*
X0063770Y0038694D02*
X0055144Y0038694D01*
X0056589Y0039293D02*
X0063387Y0039293D01*
X0063139Y0039891D02*
X0057274Y0039891D01*
X0057872Y0040490D02*
X0062901Y0040490D01*
X0062901Y0041088D02*
X0058471Y0041088D01*
X0059053Y0041687D02*
X0062901Y0041687D01*
X0062964Y0042285D02*
X0059301Y0042285D01*
X0059549Y0042884D02*
X0063212Y0042884D01*
X0063460Y0043482D02*
X0059797Y0043482D01*
X0060045Y0044081D02*
X0063945Y0044081D01*
X0064544Y0044679D02*
X0060289Y0044679D01*
X0060289Y0045278D02*
X0065486Y0045278D01*
X0064903Y0045876D02*
X0060289Y0045876D01*
X0060289Y0046475D02*
X0064320Y0046475D01*
X0063736Y0047073D02*
X0060289Y0047073D01*
X0060289Y0047672D02*
X0063153Y0047672D01*
X0062570Y0048270D02*
X0060148Y0048270D01*
X0059900Y0048869D02*
X0061987Y0048869D01*
X0061404Y0049467D02*
X0059652Y0049467D01*
X0059404Y0050066D02*
X0060821Y0050066D01*
X0060237Y0050664D02*
X0059156Y0050664D01*
X0058720Y0051263D02*
X0059654Y0051263D01*
X0059071Y0051861D02*
X0058121Y0051861D01*
X0058488Y0052460D02*
X0057523Y0052460D01*
X0057905Y0053058D02*
X0056924Y0053058D01*
X0057322Y0053657D02*
X0055745Y0053657D01*
X0055143Y0057846D02*
X0053193Y0057846D01*
X0053888Y0058445D02*
X0054545Y0058445D01*
X0056095Y0058300D02*
X0053095Y0061300D01*
X0051095Y0061300D01*
X0048302Y0058445D02*
X0047606Y0058445D01*
X0047707Y0059043D02*
X0047007Y0059043D01*
X0046589Y0059642D02*
X0047459Y0059642D01*
X0047211Y0060240D02*
X0046589Y0060240D01*
X0046589Y0060839D02*
X0047101Y0060839D01*
X0047101Y0061437D02*
X0046589Y0061437D01*
X0046589Y0062036D02*
X0047101Y0062036D01*
X0047325Y0062634D02*
X0046589Y0062634D01*
X0046683Y0063233D02*
X0047573Y0063233D01*
X0047282Y0063832D02*
X0047979Y0063832D01*
X0047880Y0064430D02*
X0048577Y0064430D01*
X0048479Y0065029D02*
X0049661Y0065029D01*
X0049077Y0065627D02*
X0055113Y0065627D01*
X0055711Y0065029D02*
X0052530Y0065029D01*
X0053613Y0064430D02*
X0056310Y0064430D01*
X0056601Y0063832D02*
X0054212Y0063832D01*
X0054617Y0063233D02*
X0056601Y0063233D01*
X0056601Y0062634D02*
X0054865Y0062634D01*
X0055089Y0062036D02*
X0056601Y0062036D01*
X0056601Y0061437D02*
X0055089Y0061437D01*
X0055089Y0060839D02*
X0056901Y0060839D01*
X0057499Y0060240D02*
X0055560Y0060240D01*
X0056158Y0059642D02*
X0058098Y0059642D01*
X0056095Y0058300D02*
X0097095Y0058300D01*
X0100095Y0055300D01*
X0107095Y0055300D01*
X0102995Y0056649D02*
X0100151Y0056649D01*
X0099553Y0057248D02*
X0102995Y0057248D01*
X0103293Y0057846D02*
X0098954Y0057846D01*
X0096742Y0057248D02*
X0048803Y0057248D01*
X0048997Y0057846D02*
X0048204Y0057846D01*
X0046037Y0055452D02*
X0043183Y0055452D01*
X0043183Y0054854D02*
X0046636Y0054854D01*
X0047234Y0054255D02*
X0043183Y0054255D01*
X0043183Y0053657D02*
X0048445Y0053657D01*
X0047266Y0053058D02*
X0043183Y0053058D01*
X0043183Y0052460D02*
X0046667Y0052460D01*
X0046069Y0051861D02*
X0043183Y0051861D01*
X0043183Y0051263D02*
X0045470Y0051263D01*
X0045034Y0050664D02*
X0043183Y0050664D01*
X0043183Y0050066D02*
X0044786Y0050066D01*
X0044538Y0049467D02*
X0043183Y0049467D01*
X0043183Y0048869D02*
X0044290Y0048869D01*
X0044042Y0048270D02*
X0043183Y0048270D01*
X0043183Y0047672D02*
X0043901Y0047672D01*
X0043901Y0047073D02*
X0043183Y0047073D01*
X0043183Y0046475D02*
X0043901Y0046475D01*
X0043901Y0045876D02*
X0043216Y0045876D01*
X0043263Y0045278D02*
X0043901Y0045278D01*
X0043901Y0044679D02*
X0043366Y0044679D01*
X0043560Y0044081D02*
X0044146Y0044081D01*
X0044394Y0043482D02*
X0043755Y0043482D01*
X0043949Y0042884D02*
X0044641Y0042884D01*
X0044889Y0042285D02*
X0044144Y0042285D01*
X0044566Y0041687D02*
X0045137Y0041687D01*
X0045001Y0041088D02*
X0045719Y0041088D01*
X0045436Y0040490D02*
X0046318Y0040490D01*
X0045940Y0039891D02*
X0046916Y0039891D01*
X0046764Y0039293D02*
X0047601Y0039293D01*
X0047587Y0038694D02*
X0049046Y0038694D01*
X0045439Y0056051D02*
X0043183Y0056051D01*
X0043183Y0056649D02*
X0044840Y0056649D01*
X0044242Y0057248D02*
X0043183Y0057248D01*
X0043183Y0057846D02*
X0043643Y0057846D01*
X0043601Y0058445D02*
X0043183Y0058445D01*
X0043183Y0059043D02*
X0043601Y0059043D01*
X0043601Y0059642D02*
X0043183Y0059642D01*
X0043183Y0060240D02*
X0043601Y0060240D01*
X0043601Y0060839D02*
X0043183Y0060839D01*
X0043183Y0061437D02*
X0043601Y0061437D01*
X0043601Y0062036D02*
X0043183Y0062036D01*
X0043183Y0062634D02*
X0043601Y0062634D01*
X0043601Y0063233D02*
X0043183Y0063233D01*
X0043183Y0063832D02*
X0043601Y0063832D01*
X0043601Y0064430D02*
X0043183Y0064430D01*
X0043183Y0065029D02*
X0044168Y0065029D01*
X0044767Y0065627D02*
X0043183Y0065627D01*
X0043183Y0066226D02*
X0045365Y0066226D01*
X0045964Y0066824D02*
X0043183Y0066824D01*
X0043183Y0067423D02*
X0044699Y0067423D01*
X0044101Y0068021D02*
X0043183Y0068021D01*
X0043183Y0068620D02*
X0043811Y0068620D01*
X0043811Y0069218D02*
X0043183Y0069218D01*
X0043183Y0069817D02*
X0043423Y0069817D01*
X0043345Y0071300D02*
X0043345Y0100300D01*
X0045095Y0102050D01*
X0044345Y0098550D02*
X0044345Y0092050D01*
X0045095Y0091300D01*
X0055595Y0091300D01*
X0056845Y0092550D01*
X0056845Y0095550D01*
X0058595Y0097300D01*
X0217721Y0097300D01*
X0217933Y0097388D02*
X0227345Y0106800D01*
X0226143Y0108121D02*
X0224072Y0108121D01*
X0223473Y0107523D02*
X0225561Y0107523D01*
X0225561Y0106924D02*
X0222875Y0106924D01*
X0222276Y0106326D02*
X0225466Y0106326D01*
X0224867Y0105727D02*
X0221195Y0105727D01*
X0221195Y0105129D02*
X0224269Y0105129D01*
X0223670Y0104530D02*
X0069754Y0104530D01*
X0070352Y0105129D02*
X0132995Y0105129D01*
X0132995Y0105727D02*
X0070951Y0105727D01*
X0071549Y0106326D02*
X0132995Y0106326D01*
X0132995Y0106924D02*
X0072148Y0106924D01*
X0072746Y0107523D02*
X0132995Y0107523D01*
X0132995Y0108121D02*
X0073345Y0108121D01*
X0073943Y0108720D02*
X0132995Y0108720D01*
X0132995Y0109318D02*
X0074542Y0109318D01*
X0075140Y0109917D02*
X0132995Y0109917D01*
X0132995Y0110515D02*
X0075739Y0110515D01*
X0076337Y0111114D02*
X0132995Y0111114D01*
X0132995Y0111712D02*
X0076936Y0111712D01*
X0077534Y0112311D02*
X0132995Y0112311D01*
X0132995Y0112909D02*
X0078133Y0112909D01*
X0078731Y0113508D02*
X0132995Y0113508D01*
X0132995Y0114106D02*
X0079330Y0114106D01*
X0069155Y0103932D02*
X0223072Y0103932D01*
X0222473Y0103333D02*
X0068556Y0103333D01*
X0067958Y0102735D02*
X0221875Y0102735D01*
X0221276Y0102136D02*
X0067359Y0102136D01*
X0066761Y0101538D02*
X0220678Y0101538D01*
X0220079Y0100939D02*
X0066162Y0100939D01*
X0065564Y0100341D02*
X0219481Y0100341D01*
X0218882Y0099742D02*
X0064965Y0099742D01*
X0064367Y0099144D02*
X0218284Y0099144D01*
X0217685Y0098545D02*
X0063768Y0098545D01*
X0061116Y0095553D02*
X0239851Y0095553D01*
X0239851Y0096151D02*
X0058852Y0096151D01*
X0059106Y0096084D02*
X0058061Y0095039D01*
X0058061Y0093561D01*
X0059106Y0092516D01*
X0060224Y0092516D01*
X0060934Y0091806D01*
X0224816Y0091806D01*
X0225606Y0091016D01*
X0227084Y0091016D01*
X0228129Y0092061D01*
X0228129Y0093539D01*
X0227084Y0094584D01*
X0225606Y0094584D01*
X0224816Y0093794D01*
X0061757Y0093794D01*
X0061629Y0093921D01*
X0061629Y0095039D01*
X0060584Y0096084D01*
X0059106Y0096084D01*
X0058574Y0095553D02*
X0058253Y0095553D01*
X0058061Y0094954D02*
X0057839Y0094954D01*
X0057839Y0094356D02*
X0058061Y0094356D01*
X0058061Y0093757D02*
X0057839Y0093757D01*
X0057839Y0093159D02*
X0058463Y0093159D01*
X0059062Y0092560D02*
X0057839Y0092560D01*
X0057662Y0091962D02*
X0060778Y0091962D01*
X0061345Y0092800D02*
X0059845Y0094300D01*
X0061629Y0094356D02*
X0225377Y0094356D01*
X0226345Y0092800D02*
X0061345Y0092800D01*
X0061629Y0094954D02*
X0239851Y0094954D01*
X0239851Y0094356D02*
X0227313Y0094356D01*
X0227911Y0093757D02*
X0239851Y0093757D01*
X0239851Y0093159D02*
X0228129Y0093159D01*
X0228129Y0092560D02*
X0239851Y0092560D01*
X0239851Y0091962D02*
X0228030Y0091962D01*
X0227431Y0091363D02*
X0239851Y0091363D01*
X0239851Y0090765D02*
X0056465Y0090765D01*
X0057063Y0091363D02*
X0225259Y0091363D01*
X0218700Y0096750D02*
X0239851Y0096750D01*
X0239851Y0097348D02*
X0219299Y0097348D01*
X0219897Y0097947D02*
X0239851Y0097947D01*
X0239851Y0098545D02*
X0220496Y0098545D01*
X0221094Y0099144D02*
X0239851Y0099144D01*
X0239851Y0099742D02*
X0221693Y0099742D01*
X0222291Y0100341D02*
X0239851Y0100341D01*
X0239851Y0100939D02*
X0222890Y0100939D01*
X0223488Y0101538D02*
X0239851Y0101538D01*
X0239851Y0102136D02*
X0224087Y0102136D01*
X0224685Y0102735D02*
X0239505Y0102735D01*
X0238907Y0103333D02*
X0225284Y0103333D01*
X0225882Y0103932D02*
X0238308Y0103932D01*
X0237710Y0104530D02*
X0226481Y0104530D01*
X0228197Y0105129D02*
X0237111Y0105129D01*
X0236513Y0105727D02*
X0228796Y0105727D01*
X0229129Y0106326D02*
X0235914Y0106326D01*
X0235315Y0106924D02*
X0229129Y0106924D01*
X0229129Y0107523D02*
X0234717Y0107523D01*
X0234118Y0108121D02*
X0228547Y0108121D01*
X0228421Y0109318D02*
X0225269Y0109318D01*
X0224670Y0108720D02*
X0233520Y0108720D01*
X0233845Y0109800D02*
X0240845Y0102800D01*
X0240845Y0057050D01*
X0237595Y0053800D01*
X0223312Y0067423D02*
X0057628Y0067423D01*
X0057029Y0068021D02*
X0223911Y0068021D01*
X0224509Y0068620D02*
X0056431Y0068620D01*
X0058226Y0066824D02*
X0222714Y0066824D01*
X0222115Y0066226D02*
X0058825Y0066226D01*
X0047759Y0068620D02*
X0047379Y0068620D01*
X0047379Y0069218D02*
X0225108Y0069218D01*
X0225706Y0069817D02*
X0047352Y0069817D01*
X0046753Y0070415D02*
X0226305Y0070415D01*
X0226903Y0071014D02*
X0045037Y0071014D01*
X0044438Y0071612D02*
X0227502Y0071612D01*
X0228101Y0072211D02*
X0044339Y0072211D01*
X0044339Y0072809D02*
X0228699Y0072809D01*
X0229298Y0073408D02*
X0044339Y0073408D01*
X0044339Y0074006D02*
X0229896Y0074006D01*
X0230495Y0074605D02*
X0044339Y0074605D01*
X0044339Y0075203D02*
X0231093Y0075203D01*
X0231101Y0075802D02*
X0044339Y0075802D01*
X0044339Y0076400D02*
X0231101Y0076400D01*
X0231101Y0076999D02*
X0044339Y0076999D01*
X0044339Y0077597D02*
X0225275Y0077597D01*
X0227916Y0077597D02*
X0231101Y0077597D01*
X0230676Y0078196D02*
X0228379Y0078196D01*
X0228379Y0078794D02*
X0230311Y0078794D01*
X0230311Y0079393D02*
X0228379Y0079393D01*
X0227927Y0079991D02*
X0230311Y0079991D01*
X0239851Y0081787D02*
X0060882Y0081787D01*
X0059309Y0081787D02*
X0044339Y0081787D01*
X0044339Y0082385D02*
X0239851Y0082385D01*
X0239851Y0082984D02*
X0044339Y0082984D01*
X0044339Y0083582D02*
X0239851Y0083582D01*
X0239851Y0084181D02*
X0044339Y0084181D01*
X0044339Y0084779D02*
X0239851Y0084779D01*
X0239851Y0085378D02*
X0044339Y0085378D01*
X0044339Y0085976D02*
X0239851Y0085976D01*
X0239851Y0086575D02*
X0044339Y0086575D01*
X0044339Y0087173D02*
X0239851Y0087173D01*
X0239851Y0087772D02*
X0044339Y0087772D01*
X0044339Y0088370D02*
X0239851Y0088370D01*
X0239851Y0088969D02*
X0044339Y0088969D01*
X0044339Y0089568D02*
X0239851Y0089568D01*
X0239851Y0090166D02*
X0044339Y0090166D01*
X0046345Y0093550D02*
X0047595Y0094800D01*
X0044345Y0098550D02*
X0051595Y0105800D01*
X0059595Y0105800D01*
X0058710Y0081188D02*
X0044339Y0081188D01*
X0044339Y0080590D02*
X0058311Y0080590D01*
X0058311Y0079991D02*
X0044339Y0079991D01*
X0044339Y0079393D02*
X0058311Y0079393D01*
X0047161Y0068021D02*
X0047090Y0068021D01*
X0046562Y0067423D02*
X0046491Y0067423D01*
X0045595Y0069050D02*
X0043345Y0071300D01*
X0098869Y0037497D02*
X0105318Y0037497D01*
X0104369Y0038096D02*
X0099819Y0038096D01*
X0100385Y0038694D02*
X0103770Y0038694D01*
X0103387Y0039293D02*
X0100779Y0039293D01*
X0101047Y0039891D02*
X0103139Y0039891D01*
X0102901Y0040490D02*
X0101213Y0040490D01*
X0101280Y0041687D02*
X0102901Y0041687D01*
X0102964Y0042285D02*
X0101185Y0042285D01*
X0100990Y0042884D02*
X0102995Y0042884D01*
X0102995Y0043482D02*
X0100690Y0043482D01*
X0100245Y0044081D02*
X0102995Y0044081D01*
X0102995Y0044679D02*
X0099579Y0044679D01*
X0123178Y0114705D02*
X0132995Y0114705D01*
X0132995Y0115303D02*
X0123777Y0115303D01*
X0124375Y0115902D02*
X0132995Y0115902D01*
X0132995Y0116501D02*
X0124974Y0116501D01*
X0125572Y0117099D02*
X0132995Y0117099D01*
X0132995Y0117698D02*
X0129357Y0117698D01*
X0130022Y0118296D02*
X0132995Y0118296D01*
X0132995Y0118895D02*
X0130620Y0118895D01*
X0130886Y0119493D02*
X0132995Y0119493D01*
X0132995Y0120092D02*
X0131134Y0120092D01*
X0131289Y0120690D02*
X0132901Y0120690D01*
X0132901Y0121289D02*
X0131289Y0121289D01*
X0131289Y0121887D02*
X0132901Y0121887D01*
X0133047Y0122486D02*
X0131143Y0122486D01*
X0130895Y0123084D02*
X0133295Y0123084D01*
X0133547Y0123683D02*
X0130643Y0123683D01*
X0130045Y0124281D02*
X0134146Y0124281D01*
X0134779Y0124880D02*
X0129412Y0124880D01*
X0217095Y0107300D02*
X0221845Y0107300D01*
X0225095Y0110550D01*
X0228595Y0110550D01*
X0229345Y0109800D01*
X0233845Y0109800D01*
X0217933Y0097388D02*
X0217908Y0097365D01*
X0217881Y0097346D01*
X0217851Y0097330D01*
X0217820Y0097317D01*
X0217788Y0097308D01*
X0217755Y0097302D01*
X0217721Y0097300D01*
D20*
X0226345Y0092800D03*
X0231845Y0093550D03*
X0234595Y0093550D03*
X0231345Y0099800D03*
X0229845Y0105550D03*
X0227345Y0106800D03*
X0227095Y0086800D03*
X0227095Y0084300D03*
X0227095Y0081800D03*
X0226595Y0078800D03*
X0227095Y0075800D03*
X0232095Y0079300D03*
X0238345Y0077300D03*
X0238345Y0069550D03*
X0238345Y0067050D03*
X0226595Y0063800D03*
X0226345Y0058800D03*
X0237595Y0056550D03*
X0222845Y0046300D03*
X0238345Y0085800D03*
X0131595Y0116050D03*
X0132095Y0119050D03*
X0127845Y0116050D03*
X0132095Y0124300D03*
X0059595Y0105800D03*
X0054845Y0095800D03*
X0052595Y0095800D03*
X0052595Y0093550D03*
X0054845Y0093550D03*
X0059845Y0094300D03*
X0048595Y0093550D03*
X0046345Y0093550D03*
X0046345Y0095800D03*
X0048595Y0095800D03*
X0045095Y0102050D03*
X0047595Y0084550D03*
X0060595Y0085050D03*
X0060095Y0080050D03*
X0060595Y0070050D03*
X0059595Y0062550D03*
X0045845Y0053550D03*
X0063095Y0045300D03*
D21*
X0053845Y0094800D02*
X0053845Y0098300D01*
X0055095Y0099550D01*
X0062095Y0099550D01*
X0078595Y0116050D01*
X0121845Y0116050D01*
X0127095Y0121300D01*
X0107095Y0121300D02*
X0079095Y0121300D01*
X0060845Y0103050D01*
X0052595Y0103050D01*
X0047595Y0098050D01*
X0047595Y0095050D01*
D22*
X0049345Y0095027D02*
X0045639Y0095027D01*
X0045639Y0093829D02*
X0049345Y0093829D01*
X0049345Y0093550D02*
X0048845Y0093050D01*
X0045639Y0093050D01*
X0045639Y0096844D01*
X0047095Y0098300D01*
X0047845Y0097550D01*
X0049345Y0099050D01*
X0049345Y0093550D01*
X0051845Y0093550D02*
X0052345Y0093050D01*
X0055095Y0093050D01*
X0055345Y0093300D01*
X0055345Y0095800D01*
X0055551Y0096006D01*
X0055551Y0096086D01*
X0058059Y0098594D01*
X0058139Y0098594D01*
X0058345Y0098800D01*
X0055595Y0098800D01*
X0055595Y0099050D01*
X0054595Y0099050D01*
X0053345Y0098550D01*
X0051845Y0097050D01*
X0051845Y0093550D01*
X0051845Y0093829D02*
X0055345Y0093829D01*
X0055345Y0095027D02*
X0051845Y0095027D01*
X0051845Y0096226D02*
X0055691Y0096226D01*
X0056890Y0097424D02*
X0052219Y0097424D01*
X0053527Y0098623D02*
X0058168Y0098623D01*
X0049345Y0098623D02*
X0048918Y0098623D01*
X0049345Y0097424D02*
X0046219Y0097424D01*
X0045639Y0096226D02*
X0049345Y0096226D01*
D23*
X0095095Y0051800D02*
X0095095Y0050300D01*
X0093595Y0048800D01*
X0091595Y0049800D02*
X0097095Y0044300D01*
X0097095Y0041300D01*
D24*
X0107095Y0055300D02*
X0117095Y0055300D01*
X0127095Y0055300D01*
X0137095Y0055300D01*
X0147095Y0055300D01*
X0157095Y0055300D01*
X0167095Y0055300D01*
X0177095Y0055300D01*
X0187095Y0055300D01*
X0197095Y0055300D01*
X0207095Y0055300D01*
X0208095Y0055300D01*
X0156595Y0106800D02*
X0145095Y0106800D01*
X0145595Y0107300D01*
X0147095Y0107300D01*
X0137095Y0107300D01*
X0156595Y0106800D02*
X0157095Y0107300D01*
X0167095Y0107300D01*
X0177095Y0107300D01*
X0186095Y0107300D01*
X0187095Y0108300D01*
X0196095Y0108300D01*
X0197095Y0107300D01*
X0207095Y0107300D01*
X0217095Y0107300D01*
X0212595Y0107300D01*
D25*
X0060095Y0055050D03*
X0045595Y0069050D03*
M02*
