%
M48
M72
T01C0.01000
T02C0.03937
T03C0.09843
T04C0.10000
%
T01
X63095Y45300
X60095Y55050
X59595Y62550
X60595Y70050
X60095Y80050
X60595Y85050
X47595Y84550
X48595Y93550
X46345Y93550
X46345Y95800
X48595Y95800
X52595Y95800
X52595Y93550
X54845Y93550
X54845Y95800
X59845Y94300
X45095Y102050
X59595Y105800
X45595Y69050
X45845Y53550
X127845Y116050
X131595Y116050
X132095Y119050
X132095Y124300
X227345Y106800
X229845Y105550
X231345Y99800
X231845Y93550
X234595Y93550
X226345Y92800
X227095Y86800
X227095Y84300
X227095Y81800
X226595Y78800
X227095Y75800
X232095Y79300
X238345Y77300
X238345Y69550
X238345Y67050
X226595Y63800
X226345Y58800
X237595Y56550
X222845Y46300
X238345Y85800
T02
X232095Y61550
X217095Y41300
X207095Y41300
X197095Y41300
X187095Y41300
X177095Y41300
X167095Y41300
X157095Y41300
X147095Y41300
X137095Y41300
X127095Y41300
X117095Y41300
X107095Y41300
X97095Y41300
X87095Y41300
X77095Y41300
X67095Y41300
X51095Y61300
X107095Y121300
X117095Y121300
X127095Y121300
X137095Y121300
X147095Y121300
X157095Y121300
X167095Y121300
X177095Y121300
X187095Y121300
X197095Y121300
X207095Y121300
X217095Y121300
T03
X52095Y46300
X52095Y116300
T04
X232095Y116300
X232095Y46300
M30
